<svg width="500" height="500" viewBox="0 0 500 500" fill="none" xmlns="http://www.w3.org/2000/svg">
<path d="M228.162 475.952C228.162 475.952 303.837 488.102 363.218 434.91C422.599 381.718 438.912 295.239 453.977 225.589C469.042 155.94 437.022 94.004 377.856 74.15C318.691 54.296 293.105 104.792 220.131 120.749C147.157 136.706 124.952 129.731 73.663 183.458C22.374 237.185 34.193 339.052 99.178 403.842C164.164 468.632 228.162 475.952 228.162 475.952Z" fill="#001943"/>
<path opacity="0.7" d="M228.162 475.952C228.162 475.952 303.837 488.102 363.218 434.91C422.599 381.718 438.912 295.239 453.977 225.589C469.042 155.94 437.022 94.004 377.856 74.15C318.691 54.296 293.105 104.792 220.131 120.749C147.157 136.706 124.952 129.731 73.663 183.458C22.374 237.185 34.193 339.052 99.178 403.842C164.164 468.632 228.162 475.952 228.162 475.952Z" fill="white"/>
<path d="M425.835 119.995C423.006 110.8 411.799 106.241 403.85 102.795C400.125 101.181 399.055 98.29 398.783 94.352C398.753 93.919 398.801 91.382 398.877 88.887H395.286H386.658H383.067C383.142 91.381 383.19 93.919 383.161 94.352C382.889 98.29 381.818 101.181 378.094 102.795C370.145 106.24 358.938 110.8 356.109 119.995C355.286 122.669 355.064 125.114 355.109 127.152H386.659H395.287H426.837C426.88 125.114 426.657 122.669 425.835 119.995Z" fill="#263238"/>
<path d="M392.04 37.886H389.901V90.356H392.04V37.886Z" fill="#263238"/>
<path d="M353.84 132.204L339.524 165.048" stroke="#263238" stroke-miterlimit="10" stroke-linecap="round" stroke-linejoin="round"/>
<path d="M427.971 132.204L442.287 165.048" stroke="#263238" stroke-miterlimit="10" stroke-linecap="round" stroke-linejoin="round"/>
<path d="M361.987 130.954L358.193 143.856" stroke="#263238" stroke-miterlimit="10" stroke-linecap="round" stroke-linejoin="round"/>
<path d="M418.907 131.524L422.702 144.236" stroke="#263238" stroke-miterlimit="10" stroke-linecap="round" stroke-linejoin="round"/>
<path d="M414.923 139.682L418.148 151.635" stroke="#263238" stroke-miterlimit="10" stroke-linecap="round" stroke-linejoin="round"/>
<path d="M377.925 139.682L376.407 150.876" stroke="#263238" stroke-miterlimit="10" stroke-linecap="round" stroke-linejoin="round"/>
<path d="M185.899 154.398H211.225V178.639H183.728" stroke="#263238" stroke-miterlimit="10" stroke-linecap="round" stroke-linejoin="round"/>
<path d="M215.929 204.146H235.105V165.252H217.014" stroke="#263238" stroke-miterlimit="10" stroke-linecap="round" stroke-linejoin="round"/>
<path d="M189.516 150.418H173.597V159.463H189.516V150.418Z" fill="#001943" stroke="#263238" stroke-miterlimit="10" stroke-linecap="round" stroke-linejoin="round"/>
<path d="M219.186 161.272H203.266V170.317H219.186V161.272Z" fill="#001943" stroke="#263238" stroke-miterlimit="10" stroke-linecap="round" stroke-linejoin="round"/>
<path d="M223.889 199.624H207.969V208.669H223.889V199.624Z" fill="#001943" stroke="#263238" stroke-miterlimit="10" stroke-linecap="round" stroke-linejoin="round"/>
<path d="M189.516 172.126H173.597V181.171H189.516V172.126Z" fill="#001943" stroke="#263238" stroke-miterlimit="10" stroke-linecap="round" stroke-linejoin="round"/>
<path d="M247.778 263.182H189.778C187.753 263.182 186.111 261.54 186.111 259.515V228.182C186.111 226.157 187.753 224.515 189.778 224.515H247.778C249.803 224.515 251.445 226.157 251.445 228.182V259.515C251.445 261.541 249.803 263.182 247.778 263.182Z" fill="white" stroke="#263238" stroke-miterlimit="10" stroke-linecap="round" stroke-linejoin="round"/>
<path d="M251.444 231.849H186.111V245.849H251.444V231.849Z" fill="#001943" stroke="#263238" stroke-miterlimit="10" stroke-linecap="round" stroke-linejoin="round"/>
<path d="M237.653 257.01C237.653 255.501 236.43 254.277 234.92 254.277C233.411 254.277 232.187 255.5 232.187 257.01C232.187 258.519 233.411 259.743 234.92 259.743C236.43 259.742 237.653 258.519 237.653 257.01Z" fill="white" stroke="#263238" stroke-miterlimit="10" stroke-linecap="round" stroke-linejoin="round"/>
<path d="M245.244 257.01C245.244 255.501 244.021 254.277 242.511 254.277C241.002 254.277 239.778 255.5 239.778 257.01C239.778 258.519 241.001 259.743 242.511 259.743C244.02 259.742 245.244 258.519 245.244 257.01Z" fill="white" stroke="#263238" stroke-miterlimit="10" stroke-linecap="round" stroke-linejoin="round"/>
<path d="M160.474 188.584H82.308V229.309H160.474V188.584Z" fill="white" stroke="#263238" stroke-miterlimit="10" stroke-linecap="round" stroke-linejoin="round"/>
<path d="M160.474 188.584H82.308V195.799H160.474V188.584Z" fill="#263238" stroke="#263238" stroke-miterlimit="10" stroke-linecap="round" stroke-linejoin="round"/>
<path d="M148.709 204.466H94.072V216.147H148.709V204.466Z" fill="#001943" stroke="#263238" stroke-miterlimit="10" stroke-linecap="round" stroke-linejoin="round"/>
<path d="M98.422 208.366H99.36L99.219 209.966L100.543 208.958L101.018 209.772L99.512 210.51L101.018 211.289L100.543 212.109L99.219 211.066L99.36 212.695H98.422L98.598 211.037L97.268 212.068L96.799 211.248L98.264 210.51L96.764 209.813L97.239 208.999L98.593 209.983L98.422 208.366Z" fill="#263238"/>
<path d="M104.047 208.366H104.985L104.844 209.966L106.168 208.958L106.643 209.772L105.137 210.51L106.643 211.289L106.168 212.109L104.844 211.066L104.985 212.695H104.047L104.223 211.037L102.893 212.068L102.424 211.248L103.889 210.51L102.389 209.813L102.864 208.999L104.218 209.983L104.047 208.366Z" fill="#263238"/>
<path d="M109.672 208.366H110.61L110.469 209.966L111.793 208.958L112.268 209.772L110.762 210.51L112.268 211.289L111.793 212.109L110.469 211.066L110.61 212.695H109.672L109.848 211.037L108.518 212.068L108.049 211.248L109.514 210.51L108.014 209.813L108.489 208.999L109.843 209.983L109.672 208.366Z" fill="#263238"/>
<path d="M115.297 208.366H116.235L116.094 209.966L117.418 208.958L117.893 209.772L116.387 210.51L117.893 211.289L117.418 212.109L116.094 211.066L116.235 212.695H115.297L115.473 211.037L114.143 212.068L113.674 211.248L115.139 210.51L113.639 209.813L114.114 208.999L115.468 209.983L115.297 208.366Z" fill="#263238"/>
<path d="M120.922 208.366H121.86L121.719 209.966L123.043 208.958L123.518 209.772L122.012 210.51L123.518 211.289L123.043 212.109L121.719 211.066L121.86 212.695H120.922L121.098 211.037L119.768 212.068L119.299 211.248L120.764 210.51L119.264 209.813L119.739 208.999L121.093 209.983L120.922 208.366Z" fill="#263238"/>
<path d="M126.547 208.366H127.485L127.344 209.966L128.668 208.958L129.143 209.772L127.637 210.51L129.143 211.289L128.668 212.109L127.344 211.066L127.485 212.695H126.547L126.723 211.037L125.393 212.068L124.924 211.248L126.389 210.51L124.889 209.813L125.364 208.999L126.718 209.983L126.547 208.366Z" fill="#263238"/>
<path d="M132.172 208.366H133.11L132.969 209.966L134.293 208.958L134.768 209.772L133.262 210.51L134.768 211.289L134.293 212.109L132.969 211.066L133.11 212.695H132.172L132.348 211.037L131.018 212.068L130.549 211.248L132.014 210.51L130.514 209.813L130.989 208.999L132.343 209.983L132.172 208.366Z" fill="#263238"/>
<path d="M137.797 208.366H138.735L138.594 209.966L139.918 208.958L140.393 209.772L138.887 210.51L140.393 211.289L139.918 212.109L138.594 211.066L138.735 212.695H137.797L137.973 211.037L136.643 212.068L136.174 211.248L137.639 210.51L136.139 209.813L136.614 208.999L137.968 209.983L137.797 208.366Z" fill="#263238"/>
<path d="M143.422 208.366H144.36L144.219 209.966L145.543 208.958L146.018 209.772L144.512 210.51L146.018 211.289L145.543 212.109L144.219 211.066L144.36 212.695H143.422L143.598 211.037L142.268 212.068L141.799 211.248L143.264 210.51L141.764 209.813L142.239 208.999L143.593 209.983L143.422 208.366Z" fill="#263238"/>
<path d="M251.748 177.915H266.582" stroke="#263238" stroke-width="0.5" stroke-miterlimit="10" stroke-linecap="round" stroke-linejoin="round"/>
<path d="M251.748 182.257H266.582" stroke="#263238" stroke-width="0.5" stroke-miterlimit="10" stroke-linecap="round" stroke-linejoin="round"/>
<path d="M251.748 186.598H266.582" stroke="#263238" stroke-width="0.5" stroke-miterlimit="10" stroke-linecap="round" stroke-linejoin="round"/>
<path d="M251.748 190.94H266.582" stroke="#263238" stroke-width="0.5" stroke-miterlimit="10" stroke-linecap="round" stroke-linejoin="round"/>
<path d="M160.715 238.162H175.549" stroke="#263238" stroke-width="0.5" stroke-miterlimit="10" stroke-linecap="round" stroke-linejoin="round"/>
<path d="M160.715 242.504H175.549" stroke="#263238" stroke-width="0.5" stroke-miterlimit="10" stroke-linecap="round" stroke-linejoin="round"/>
<path d="M160.715 246.845H175.549" stroke="#263238" stroke-width="0.5" stroke-miterlimit="10" stroke-linecap="round" stroke-linejoin="round"/>
<path d="M160.715 251.187H175.549" stroke="#263238" stroke-width="0.5" stroke-miterlimit="10" stroke-linecap="round" stroke-linejoin="round"/>
<path d="M85.394 235.586H124.968" stroke="#263238" stroke-width="0.5" stroke-miterlimit="10" stroke-linecap="round" stroke-linejoin="round"/>
<path d="M85.394 239.928H124.968" stroke="#263238" stroke-width="0.5" stroke-miterlimit="10" stroke-linecap="round" stroke-linejoin="round"/>
<path d="M85.394 244.269H124.968" stroke="#263238" stroke-width="0.5" stroke-miterlimit="10" stroke-linecap="round" stroke-linejoin="round"/>
<path d="M85.394 248.611H124.968" stroke="#263238" stroke-width="0.5" stroke-miterlimit="10" stroke-linecap="round" stroke-linejoin="round"/>
<path d="M220.821 409.825H210.938V447.467H220.821V409.825Z" fill="white" stroke="#263238" stroke-miterlimit="10" stroke-linecap="round" stroke-linejoin="round"/>
<path d="M222.366 409.825H209.393V437.156H222.366V409.825Z" fill="#263238" stroke="#263238" stroke-miterlimit="10" stroke-linecap="round" stroke-linejoin="round"/>
<path d="M300.003 284.599H136.425V412.55H300.003V284.599Z" fill="white" stroke="#263238" stroke-miterlimit="10" stroke-linecap="round" stroke-linejoin="round"/>
<path d="M291.252 291.444H145.175V405.706H291.252V291.444Z" fill="#263238" stroke="#263238" stroke-miterlimit="10" stroke-linecap="round" stroke-linejoin="round"/>
<path d="M159.074 299.305H155.309C154.796 299.305 154.381 298.89 154.381 298.376C154.381 297.863 154.796 297.448 155.309 297.448H159.074C159.587 297.448 160.002 297.863 160.002 298.376C160.002 298.889 159.587 299.305 159.074 299.305ZM160.002 302.679C160.002 302.166 159.587 301.751 159.074 301.751H155.309C154.796 301.751 154.381 302.166 154.381 302.679C154.381 303.192 154.796 303.608 155.309 303.608H159.074C159.587 303.608 160.002 303.193 160.002 302.679ZM160.002 306.982C160.002 306.469 159.587 306.054 159.074 306.054H155.309C154.796 306.054 154.381 306.469 154.381 306.982C154.381 307.495 154.796 307.911 155.309 307.911H159.074C159.587 307.911 160.002 307.496 160.002 306.982ZM160.002 311.285C160.002 310.772 159.587 310.356 159.074 310.356H155.309C154.796 310.356 154.381 310.771 154.381 311.285C154.381 311.798 154.796 312.214 155.309 312.214H159.074C159.587 312.214 160.002 311.799 160.002 311.285ZM160.002 315.589C160.002 315.076 159.587 314.66 159.074 314.66H155.309C154.796 314.66 154.381 315.075 154.381 315.589C154.381 316.102 154.796 316.517 155.309 316.517H159.074C159.587 316.517 160.002 316.102 160.002 315.589ZM160.002 319.892C160.002 319.379 159.587 318.964 159.074 318.964H155.309C154.796 318.964 154.381 319.379 154.381 319.892C154.381 320.405 154.796 320.821 155.309 320.821H159.074C159.587 320.821 160.002 320.406 160.002 319.892ZM160.002 324.196C160.002 323.683 159.587 323.267 159.074 323.267H155.309C154.796 323.267 154.381 323.682 154.381 324.196C154.381 324.709 154.796 325.125 155.309 325.125H159.074C159.587 325.124 160.002 324.709 160.002 324.196ZM160.002 328.499C160.002 327.986 159.587 327.57 159.074 327.57H155.309C154.796 327.57 154.381 327.985 154.381 328.499C154.381 329.012 154.796 329.427 155.309 329.427H159.074C159.587 329.427 160.002 329.012 160.002 328.499ZM174.089 298.376C174.089 297.863 173.674 297.448 173.161 297.448H163.277C162.764 297.448 162.349 297.863 162.349 298.376C162.349 298.889 162.764 299.305 163.277 299.305H173.161C173.673 299.305 174.089 298.889 174.089 298.376ZM174.089 302.679C174.089 302.166 173.674 301.751 173.161 301.751H163.277C162.764 301.751 162.349 302.166 162.349 302.679C162.349 303.192 162.764 303.608 163.277 303.608H173.161C173.673 303.608 174.089 303.193 174.089 302.679ZM174.089 306.982C174.089 306.469 173.674 306.054 173.161 306.054H163.277C162.764 306.054 162.349 306.469 162.349 306.982C162.349 307.495 162.764 307.911 163.277 307.911H173.161C173.673 307.911 174.089 307.496 174.089 306.982ZM174.089 311.285C174.089 310.772 173.674 310.356 173.161 310.356H163.277C162.764 310.356 162.349 310.771 162.349 311.285C162.349 311.798 162.764 312.214 163.277 312.214H173.161C173.673 312.214 174.089 311.799 174.089 311.285ZM174.089 315.589C174.089 315.076 173.674 314.66 173.161 314.66H163.277C162.764 314.66 162.349 315.075 162.349 315.589C162.349 316.102 162.764 316.517 163.277 316.517H173.161C173.673 316.517 174.089 316.102 174.089 315.589ZM185.922 319.892C185.922 319.379 185.507 318.964 184.993 318.964H175.109C174.596 318.964 174.18 319.379 174.18 319.892C174.18 320.405 174.595 320.821 175.109 320.821H184.993C185.507 320.821 185.922 320.406 185.922 319.892ZM185.922 324.196C185.922 323.683 185.507 323.267 184.993 323.267H175.109C174.596 323.267 174.18 323.682 174.18 324.196C174.18 324.709 174.595 325.125 175.109 325.125H184.993C185.507 325.124 185.922 324.709 185.922 324.196ZM185.922 328.499C185.922 327.986 185.507 327.57 184.993 327.57H175.109C174.596 327.57 174.18 327.985 174.18 328.499C174.18 329.012 174.595 329.427 175.109 329.427H184.993C185.507 329.427 185.922 329.012 185.922 328.499ZM178.438 298.376C178.438 297.782 177.956 297.3 177.362 297.3C176.768 297.3 176.286 297.781 176.286 298.376C176.286 298.97 176.768 299.452 177.362 299.452C177.957 299.452 178.438 298.97 178.438 298.376ZM181.665 298.376C181.665 297.782 181.184 297.3 180.589 297.3C179.995 297.3 179.513 297.781 179.513 298.376C179.513 298.97 179.995 299.452 180.589 299.452C181.184 299.452 181.665 298.97 181.665 298.376ZM184.893 298.376C184.893 297.782 184.411 297.3 183.817 297.3C183.223 297.3 182.741 297.781 182.741 298.376C182.741 298.97 183.223 299.452 183.817 299.452C184.411 299.452 184.893 298.97 184.893 298.376ZM188.12 298.376C188.12 297.782 187.638 297.3 187.044 297.3C186.45 297.3 185.968 297.781 185.968 298.376C185.968 298.97 186.45 299.452 187.044 299.452C187.639 299.452 188.12 298.97 188.12 298.376ZM191.348 298.376C191.348 297.782 190.866 297.3 190.272 297.3C189.678 297.3 189.196 297.781 189.196 298.376C189.196 298.97 189.678 299.452 190.272 299.452C190.866 299.452 191.348 298.97 191.348 298.376ZM194.575 298.376C194.575 297.782 194.093 297.3 193.499 297.3C192.905 297.3 192.423 297.781 192.423 298.376C192.423 298.97 192.905 299.452 193.499 299.452C194.094 299.452 194.575 298.97 194.575 298.376ZM178.438 306.983C178.438 306.389 177.956 305.907 177.362 305.907C176.768 305.907 176.286 306.389 176.286 306.983C176.286 307.577 176.768 308.059 177.362 308.059C177.957 308.058 178.438 307.577 178.438 306.983ZM181.665 306.983C181.665 306.389 181.184 305.907 180.589 305.907C179.995 305.907 179.513 306.389 179.513 306.983C179.513 307.577 179.995 308.059 180.589 308.059C181.184 308.058 181.665 307.577 181.665 306.983ZM184.893 306.983C184.893 306.389 184.411 305.907 183.817 305.907C183.223 305.907 182.741 306.389 182.741 306.983C182.741 307.577 183.223 308.059 183.817 308.059C184.411 308.058 184.893 307.577 184.893 306.983ZM188.12 306.983C188.12 306.389 187.638 305.907 187.044 305.907C186.45 305.907 185.968 306.389 185.968 306.983C185.968 307.577 186.45 308.059 187.044 308.059C187.639 308.058 188.12 307.577 188.12 306.983ZM191.348 306.983C191.348 306.389 190.866 305.907 190.272 305.907C189.678 305.907 189.196 306.389 189.196 306.983C189.196 307.577 189.678 308.059 190.272 308.059C190.866 308.058 191.348 307.577 191.348 306.983ZM194.575 306.983C194.575 306.389 194.093 305.907 193.499 305.907C192.905 305.907 192.423 306.389 192.423 306.983C192.423 307.577 192.905 308.059 193.499 308.059C194.094 308.058 194.575 307.577 194.575 306.983ZM189.465 319.354C189.465 318.76 188.983 318.278 188.389 318.278C187.795 318.278 187.313 318.76 187.313 319.354C187.313 319.948 187.795 320.43 188.389 320.43C188.983 320.43 189.465 319.948 189.465 319.354ZM192.693 319.354C192.693 318.76 192.211 318.278 191.617 318.278C191.023 318.278 190.541 318.76 190.541 319.354C190.541 319.948 191.023 320.43 191.617 320.43C192.211 320.43 192.693 319.948 192.693 319.354ZM195.92 319.354C195.92 318.76 195.438 318.278 194.844 318.278C194.25 318.278 193.768 318.76 193.768 319.354C193.768 319.948 194.25 320.43 194.844 320.43C195.438 320.43 195.92 319.948 195.92 319.354ZM199.147 319.354C199.147 318.76 198.665 318.278 198.071 318.278C197.477 318.278 196.995 318.76 196.995 319.354C196.995 319.948 197.477 320.43 198.071 320.43C198.666 320.43 199.147 319.948 199.147 319.354ZM202.375 319.354C202.375 318.76 201.893 318.278 201.299 318.278C200.705 318.278 200.223 318.76 200.223 319.354C200.223 319.948 200.705 320.43 201.299 320.43C201.893 320.43 202.375 319.948 202.375 319.354ZM205.602 319.354C205.602 318.76 205.12 318.278 204.526 318.278C203.932 318.278 203.45 318.76 203.45 319.354C203.45 319.948 203.932 320.43 204.526 320.43C205.12 320.43 205.602 319.948 205.602 319.354ZM189.465 328.23C189.465 327.636 188.983 327.154 188.389 327.154C187.795 327.154 187.313 327.636 187.313 328.23C187.313 328.824 187.795 329.306 188.389 329.306C188.983 329.305 189.465 328.824 189.465 328.23ZM192.693 328.23C192.693 327.636 192.211 327.154 191.617 327.154C191.023 327.154 190.541 327.636 190.541 328.23C190.541 328.824 191.023 329.306 191.617 329.306C192.211 329.305 192.693 328.824 192.693 328.23ZM195.92 328.23C195.92 327.636 195.438 327.154 194.844 327.154C194.25 327.154 193.768 327.636 193.768 328.23C193.768 328.824 194.25 329.306 194.844 329.306C195.438 329.305 195.92 328.824 195.92 328.23ZM199.147 328.23C199.147 327.636 198.665 327.154 198.071 327.154C197.477 327.154 196.995 327.636 196.995 328.23C196.995 328.824 197.477 329.306 198.071 329.306C198.666 329.305 199.147 328.824 199.147 328.23ZM202.375 328.23C202.375 327.636 201.893 327.154 201.299 327.154C200.705 327.154 200.223 327.636 200.223 328.23C200.223 328.824 200.705 329.306 201.299 329.306C201.893 329.305 202.375 328.824 202.375 328.23ZM205.602 328.23C205.602 327.636 205.12 327.154 204.526 327.154C203.932 327.154 203.45 327.636 203.45 328.23C203.45 328.824 203.932 329.306 204.526 329.306C205.12 329.305 205.602 328.824 205.602 328.23Z" fill="#001943"/>
<path d="M159.074 333.74H155.309C154.796 333.74 154.381 333.325 154.381 332.811C154.381 332.298 154.796 331.882 155.309 331.882H159.074C159.587 331.882 160.002 332.297 160.002 332.811C160.002 333.324 159.587 333.74 159.074 333.74ZM160.002 337.114C160.002 336.601 159.587 336.185 159.074 336.185H155.309C154.796 336.185 154.381 336.6 154.381 337.114C154.381 337.627 154.796 338.043 155.309 338.043H159.074C159.587 338.043 160.002 337.627 160.002 337.114ZM160.002 341.417C160.002 340.904 159.587 340.489 159.074 340.489H155.309C154.796 340.489 154.381 340.904 154.381 341.417C154.381 341.93 154.796 342.346 155.309 342.346H159.074C159.587 342.346 160.002 341.93 160.002 341.417ZM160.002 345.72C160.002 345.207 159.587 344.791 159.074 344.791H155.309C154.796 344.791 154.381 345.206 154.381 345.72C154.381 346.233 154.796 346.648 155.309 346.648H159.074C159.587 346.649 160.002 346.233 160.002 345.72ZM160.002 350.023C160.002 349.51 159.587 349.094 159.074 349.094H155.309C154.796 349.094 154.381 349.509 154.381 350.023C154.381 350.536 154.796 350.951 155.309 350.951H159.074C159.587 350.952 160.002 350.536 160.002 350.023ZM160.002 354.327C160.002 353.814 159.587 353.399 159.074 353.399H155.309C154.796 353.399 154.381 353.814 154.381 354.327C154.381 354.84 154.796 355.256 155.309 355.256H159.074C159.587 355.256 160.002 354.84 160.002 354.327ZM160.002 358.63C160.002 358.117 159.587 357.701 159.074 357.701H155.309C154.796 357.701 154.381 358.116 154.381 358.63C154.381 359.143 154.796 359.558 155.309 359.558H159.074C159.587 359.559 160.002 359.143 160.002 358.63ZM160.002 362.933C160.002 362.42 159.587 362.004 159.074 362.004H155.309C154.796 362.004 154.381 362.419 154.381 362.933C154.381 363.446 154.796 363.861 155.309 363.861H159.074C159.587 363.862 160.002 363.447 160.002 362.933ZM174.089 332.811C174.089 332.298 173.674 331.882 173.161 331.882H163.277C162.764 331.882 162.349 332.297 162.349 332.811C162.349 333.324 162.764 333.74 163.277 333.74H173.161C173.673 333.74 174.089 333.324 174.089 332.811ZM174.089 337.114C174.089 336.601 173.674 336.185 173.161 336.185H163.277C162.764 336.185 162.349 336.6 162.349 337.114C162.349 337.627 162.764 338.043 163.277 338.043H173.161C173.673 338.043 174.089 337.627 174.089 337.114ZM174.089 341.417C174.089 340.904 173.674 340.489 173.161 340.489H163.277C162.764 340.489 162.349 340.904 162.349 341.417C162.349 341.93 162.764 342.346 163.277 342.346H173.161C173.673 342.346 174.089 341.93 174.089 341.417ZM174.089 345.72C174.089 345.207 173.674 344.791 173.161 344.791H163.277C162.764 344.791 162.349 345.206 162.349 345.72C162.349 346.233 162.764 346.648 163.277 346.648H173.161C173.673 346.649 174.089 346.233 174.089 345.72ZM174.089 350.023C174.089 349.51 173.674 349.094 173.161 349.094H163.277C162.764 349.094 162.349 349.509 162.349 350.023C162.349 350.536 162.764 350.951 163.277 350.951H173.161C173.673 350.952 174.089 350.536 174.089 350.023ZM185.922 354.327C185.922 353.814 185.507 353.399 184.993 353.399H175.109C174.596 353.399 174.18 353.814 174.18 354.327C174.18 354.84 174.595 355.256 175.109 355.256H184.993C185.507 355.256 185.922 354.84 185.922 354.327ZM185.922 358.63C185.922 358.117 185.507 357.701 184.993 357.701H175.109C174.596 357.701 174.18 358.116 174.18 358.63C174.18 359.143 174.595 359.558 175.109 359.558H184.993C185.507 359.559 185.922 359.143 185.922 358.63ZM185.922 362.933C185.922 362.42 185.507 362.004 184.993 362.004H175.109C174.596 362.004 174.18 362.419 174.18 362.933C174.18 363.446 174.595 363.861 175.109 363.861H184.993C185.507 363.862 185.922 363.447 185.922 362.933ZM178.438 332.811C178.438 332.217 177.956 331.735 177.362 331.735C176.768 331.735 176.286 332.217 176.286 332.811C176.286 333.405 176.768 333.887 177.362 333.887C177.957 333.887 178.438 333.405 178.438 332.811ZM181.665 332.811C181.665 332.217 181.184 331.735 180.589 331.735C179.995 331.735 179.513 332.217 179.513 332.811C179.513 333.405 179.995 333.887 180.589 333.887C181.184 333.887 181.665 333.405 181.665 332.811ZM184.893 332.811C184.893 332.217 184.411 331.735 183.817 331.735C183.223 331.735 182.741 332.217 182.741 332.811C182.741 333.405 183.223 333.887 183.817 333.887C184.411 333.887 184.893 333.405 184.893 332.811ZM188.12 332.811C188.12 332.217 187.638 331.735 187.044 331.735C186.45 331.735 185.968 332.217 185.968 332.811C185.968 333.405 186.45 333.887 187.044 333.887C187.639 333.887 188.12 333.405 188.12 332.811ZM191.348 332.811C191.348 332.217 190.866 331.735 190.272 331.735C189.678 331.735 189.196 332.217 189.196 332.811C189.196 333.405 189.678 333.887 190.272 333.887C190.866 333.887 191.348 333.405 191.348 332.811ZM194.575 332.811C194.575 332.217 194.093 331.735 193.499 331.735C192.905 331.735 192.423 332.217 192.423 332.811C192.423 333.405 192.905 333.887 193.499 333.887C194.094 333.887 194.575 333.405 194.575 332.811ZM178.438 341.417C178.438 340.823 177.956 340.341 177.362 340.341C176.768 340.341 176.286 340.823 176.286 341.417C176.286 342.011 176.768 342.493 177.362 342.493C177.957 342.493 178.438 342.011 178.438 341.417ZM181.665 341.417C181.665 340.823 181.184 340.341 180.589 340.341C179.995 340.341 179.513 340.823 179.513 341.417C179.513 342.011 179.995 342.493 180.589 342.493C181.184 342.493 181.665 342.011 181.665 341.417ZM184.893 341.417C184.893 340.823 184.411 340.341 183.817 340.341C183.223 340.341 182.741 340.823 182.741 341.417C182.741 342.011 183.223 342.493 183.817 342.493C184.411 342.493 184.893 342.011 184.893 341.417ZM188.12 341.417C188.12 340.823 187.638 340.341 187.044 340.341C186.45 340.341 185.968 340.823 185.968 341.417C185.968 342.011 186.45 342.493 187.044 342.493C187.639 342.493 188.12 342.011 188.12 341.417ZM191.348 341.417C191.348 340.823 190.866 340.341 190.272 340.341C189.678 340.341 189.196 340.823 189.196 341.417C189.196 342.011 189.678 342.493 190.272 342.493C190.866 342.493 191.348 342.011 191.348 341.417ZM194.575 341.417C194.575 340.823 194.093 340.341 193.499 340.341C192.905 340.341 192.423 340.823 192.423 341.417C192.423 342.011 192.905 342.493 193.499 342.493C194.094 342.493 194.575 342.011 194.575 341.417ZM189.465 353.789C189.465 353.195 188.983 352.713 188.389 352.713C187.795 352.713 187.313 353.195 187.313 353.789C187.313 354.383 187.795 354.865 188.389 354.865C188.983 354.865 189.465 354.383 189.465 353.789ZM192.693 353.789C192.693 353.195 192.211 352.713 191.617 352.713C191.023 352.713 190.541 353.195 190.541 353.789C190.541 354.383 191.023 354.865 191.617 354.865C192.211 354.865 192.693 354.383 192.693 353.789ZM195.92 353.789C195.92 353.195 195.438 352.713 194.844 352.713C194.25 352.713 193.768 353.195 193.768 353.789C193.768 354.383 194.25 354.865 194.844 354.865C195.438 354.865 195.92 354.383 195.92 353.789ZM199.147 353.789C199.147 353.195 198.665 352.713 198.071 352.713C197.477 352.713 196.995 353.195 196.995 353.789C196.995 354.383 197.477 354.865 198.071 354.865C198.666 354.865 199.147 354.383 199.147 353.789ZM202.375 353.789C202.375 353.195 201.893 352.713 201.299 352.713C200.705 352.713 200.223 353.195 200.223 353.789C200.223 354.383 200.705 354.865 201.299 354.865C201.893 354.865 202.375 354.383 202.375 353.789ZM205.602 353.789C205.602 353.195 205.12 352.713 204.526 352.713C203.932 352.713 203.45 353.195 203.45 353.789C203.45 354.383 203.932 354.865 204.526 354.865C205.12 354.865 205.602 354.383 205.602 353.789ZM189.465 362.664C189.465 362.07 188.983 361.588 188.389 361.588C187.795 361.588 187.313 362.07 187.313 362.664C187.313 363.258 187.795 363.74 188.389 363.74C188.983 363.74 189.465 363.258 189.465 362.664ZM192.693 362.664C192.693 362.07 192.211 361.588 191.617 361.588C191.023 361.588 190.541 362.07 190.541 362.664C190.541 363.258 191.023 363.74 191.617 363.74C192.211 363.74 192.693 363.258 192.693 362.664ZM195.92 362.664C195.92 362.07 195.438 361.588 194.844 361.588C194.25 361.588 193.768 362.07 193.768 362.664C193.768 363.258 194.25 363.74 194.844 363.74C195.438 363.74 195.92 363.258 195.92 362.664ZM199.147 362.664C199.147 362.07 198.665 361.588 198.071 361.588C197.477 361.588 196.995 362.07 196.995 362.664C196.995 363.258 197.477 363.74 198.071 363.74C198.666 363.74 199.147 363.258 199.147 362.664ZM202.375 362.664C202.375 362.07 201.893 361.588 201.299 361.588C200.705 361.588 200.223 362.07 200.223 362.664C200.223 363.258 200.705 363.74 201.299 363.74C201.893 363.74 202.375 363.258 202.375 362.664ZM205.602 362.664C205.602 362.07 205.12 361.588 204.526 361.588C203.932 361.588 203.45 362.07 203.45 362.664C203.45 363.258 203.932 363.74 204.526 363.74C205.12 363.74 205.602 363.258 205.602 362.664Z" fill="#001943"/>
<path d="M159.074 369.005H155.309C154.796 369.005 154.381 368.59 154.381 368.076C154.381 367.563 154.796 367.147 155.309 367.147H159.074C159.587 367.147 160.002 367.562 160.002 368.076C160.002 368.59 159.587 369.005 159.074 369.005ZM160.002 372.38C160.002 371.867 159.587 371.452 159.074 371.452H155.309C154.796 371.452 154.381 371.867 154.381 372.38C154.381 372.893 154.796 373.309 155.309 373.309H159.074C159.587 373.309 160.002 372.893 160.002 372.38ZM160.002 376.683C160.002 376.17 159.587 375.754 159.074 375.754H155.309C154.796 375.754 154.381 376.169 154.381 376.683C154.381 377.196 154.796 377.611 155.309 377.611H159.074C159.587 377.612 160.002 377.196 160.002 376.683ZM160.002 380.986C160.002 380.473 159.587 380.057 159.074 380.057H155.309C154.796 380.057 154.381 380.472 154.381 380.986C154.381 381.499 154.796 381.914 155.309 381.914H159.074C159.587 381.915 160.002 381.499 160.002 380.986ZM160.002 385.289C160.002 384.776 159.587 384.36 159.074 384.36H155.309C154.796 384.36 154.381 384.775 154.381 385.289C154.381 385.802 154.796 386.218 155.309 386.218H159.074C159.587 386.218 160.002 385.802 160.002 385.289ZM160.002 389.593C160.002 389.08 159.587 388.664 159.074 388.664H155.309C154.796 388.664 154.381 389.079 154.381 389.593C154.381 390.106 154.796 390.522 155.309 390.522H159.074C159.587 390.522 160.002 390.106 160.002 389.593ZM160.002 393.896C160.002 393.383 159.587 392.967 159.074 392.967H155.309C154.796 392.967 154.381 393.382 154.381 393.896C154.381 394.409 154.796 394.824 155.309 394.824H159.074C159.587 394.825 160.002 394.409 160.002 393.896ZM160.002 398.199C160.002 397.686 159.587 397.27 159.074 397.27H155.309C154.796 397.27 154.381 397.685 154.381 398.199C154.381 398.712 154.796 399.128 155.309 399.128H159.074C159.587 399.128 160.002 398.712 160.002 398.199ZM174.089 368.077C174.089 367.564 173.674 367.148 173.161 367.148H163.277C162.764 367.148 162.349 367.563 162.349 368.077C162.349 368.59 162.764 369.006 163.277 369.006H173.161C173.673 369.005 174.089 368.59 174.089 368.077ZM174.089 372.38C174.089 371.867 173.674 371.452 173.161 371.452H163.277C162.764 371.452 162.349 371.867 162.349 372.38C162.349 372.893 162.764 373.309 163.277 373.309H173.161C173.673 373.309 174.089 372.893 174.089 372.38ZM174.089 376.683C174.089 376.17 173.674 375.754 173.161 375.754H163.277C162.764 375.754 162.349 376.169 162.349 376.683C162.349 377.196 162.764 377.611 163.277 377.611H173.161C173.673 377.612 174.089 377.196 174.089 376.683ZM174.089 380.986C174.089 380.473 173.674 380.057 173.161 380.057H163.277C162.764 380.057 162.349 380.472 162.349 380.986C162.349 381.499 162.764 381.914 163.277 381.914H173.161C173.673 381.915 174.089 381.499 174.089 380.986ZM174.089 385.289C174.089 384.776 173.674 384.36 173.161 384.36H163.277C162.764 384.36 162.349 384.775 162.349 385.289C162.349 385.802 162.764 386.218 163.277 386.218H173.161C173.673 386.218 174.089 385.802 174.089 385.289ZM185.922 389.593C185.922 389.08 185.507 388.664 184.993 388.664H175.109C174.596 388.664 174.18 389.079 174.18 389.593C174.18 390.106 174.595 390.522 175.109 390.522H184.993C185.507 390.522 185.922 390.106 185.922 389.593ZM185.922 393.896C185.922 393.383 185.507 392.967 184.993 392.967H175.109C174.596 392.967 174.18 393.382 174.18 393.896C174.18 394.409 174.595 394.824 175.109 394.824H184.993C185.507 394.825 185.922 394.409 185.922 393.896ZM185.922 398.199C185.922 397.686 185.507 397.27 184.993 397.27H175.109C174.596 397.27 174.18 397.685 174.18 398.199C174.18 398.712 174.595 399.128 175.109 399.128H184.993C185.507 399.128 185.922 398.712 185.922 398.199ZM178.438 368.077C178.438 367.483 177.956 367.001 177.362 367.001C176.768 367.001 176.286 367.483 176.286 368.077C176.286 368.671 176.768 369.153 177.362 369.153C177.957 369.152 178.438 368.671 178.438 368.077ZM181.665 368.077C181.665 367.483 181.184 367.001 180.589 367.001C179.995 367.001 179.513 367.483 179.513 368.077C179.513 368.671 179.995 369.153 180.589 369.153C181.184 369.152 181.665 368.671 181.665 368.077ZM184.893 368.077C184.893 367.483 184.411 367.001 183.817 367.001C183.223 367.001 182.741 367.483 182.741 368.077C182.741 368.671 183.223 369.153 183.817 369.153C184.411 369.152 184.893 368.671 184.893 368.077ZM188.12 368.077C188.12 367.483 187.638 367.001 187.044 367.001C186.45 367.001 185.968 367.483 185.968 368.077C185.968 368.671 186.45 369.153 187.044 369.153C187.639 369.152 188.12 368.671 188.12 368.077ZM191.348 368.077C191.348 367.483 190.866 367.001 190.272 367.001C189.678 367.001 189.196 367.483 189.196 368.077C189.196 368.671 189.678 369.153 190.272 369.153C190.866 369.152 191.348 368.671 191.348 368.077ZM194.575 368.077C194.575 367.483 194.093 367.001 193.499 367.001C192.905 367.001 192.423 367.483 192.423 368.077C192.423 368.671 192.905 369.153 193.499 369.153C194.094 369.152 194.575 368.671 194.575 368.077ZM178.438 376.683C178.438 376.089 177.956 375.607 177.362 375.607C176.768 375.607 176.286 376.089 176.286 376.683C176.286 377.277 176.768 377.759 177.362 377.759C177.957 377.759 178.438 377.277 178.438 376.683ZM181.665 376.683C181.665 376.089 181.184 375.607 180.589 375.607C179.995 375.607 179.513 376.089 179.513 376.683C179.513 377.277 179.995 377.759 180.589 377.759C181.184 377.759 181.665 377.277 181.665 376.683ZM184.893 376.683C184.893 376.089 184.411 375.607 183.817 375.607C183.223 375.607 182.741 376.089 182.741 376.683C182.741 377.277 183.223 377.759 183.817 377.759C184.411 377.759 184.893 377.277 184.893 376.683ZM188.12 376.683C188.12 376.089 187.638 375.607 187.044 375.607C186.45 375.607 185.968 376.089 185.968 376.683C185.968 377.277 186.45 377.759 187.044 377.759C187.639 377.759 188.12 377.277 188.12 376.683ZM191.348 376.683C191.348 376.089 190.866 375.607 190.272 375.607C189.678 375.607 189.196 376.089 189.196 376.683C189.196 377.277 189.678 377.759 190.272 377.759C190.866 377.759 191.348 377.277 191.348 376.683ZM194.575 376.683C194.575 376.089 194.093 375.607 193.499 375.607C192.905 375.607 192.423 376.089 192.423 376.683C192.423 377.277 192.905 377.759 193.499 377.759C194.094 377.759 194.575 377.277 194.575 376.683ZM189.465 389.055C189.465 388.461 188.983 387.979 188.389 387.979C187.795 387.979 187.313 388.461 187.313 389.055C187.313 389.649 187.795 390.131 188.389 390.131C188.983 390.131 189.465 389.649 189.465 389.055ZM192.693 389.055C192.693 388.461 192.211 387.979 191.617 387.979C191.023 387.979 190.541 388.461 190.541 389.055C190.541 389.649 191.023 390.131 191.617 390.131C192.211 390.131 192.693 389.649 192.693 389.055ZM195.92 389.055C195.92 388.461 195.438 387.979 194.844 387.979C194.25 387.979 193.768 388.461 193.768 389.055C193.768 389.649 194.25 390.131 194.844 390.131C195.438 390.131 195.92 389.649 195.92 389.055ZM199.147 389.055C199.147 388.461 198.665 387.979 198.071 387.979C197.477 387.979 196.995 388.461 196.995 389.055C196.995 389.649 197.477 390.131 198.071 390.131C198.666 390.131 199.147 389.649 199.147 389.055ZM202.375 389.055C202.375 388.461 201.893 387.979 201.299 387.979C200.705 387.979 200.223 388.461 200.223 389.055C200.223 389.649 200.705 390.131 201.299 390.131C201.893 390.131 202.375 389.649 202.375 389.055ZM205.602 389.055C205.602 388.461 205.12 387.979 204.526 387.979C203.932 387.979 203.45 388.461 203.45 389.055C203.45 389.649 203.932 390.131 204.526 390.131C205.12 390.131 205.602 389.649 205.602 389.055ZM189.465 397.93C189.465 397.336 188.983 396.854 188.389 396.854C187.795 396.854 187.313 397.336 187.313 397.93C187.313 398.524 187.795 399.006 188.389 399.006C188.983 399.006 189.465 398.524 189.465 397.93ZM192.693 397.93C192.693 397.336 192.211 396.854 191.617 396.854C191.023 396.854 190.541 397.336 190.541 397.93C190.541 398.524 191.023 399.006 191.617 399.006C192.211 399.006 192.693 398.524 192.693 397.93ZM195.92 397.93C195.92 397.336 195.438 396.854 194.844 396.854C194.25 396.854 193.768 397.336 193.768 397.93C193.768 398.524 194.25 399.006 194.844 399.006C195.438 399.006 195.92 398.524 195.92 397.93ZM199.147 397.93C199.147 397.336 198.665 396.854 198.071 396.854C197.477 396.854 196.995 397.336 196.995 397.93C196.995 398.524 197.477 399.006 198.071 399.006C198.666 399.006 199.147 398.524 199.147 397.93ZM202.375 397.93C202.375 397.336 201.893 396.854 201.299 396.854C200.705 396.854 200.223 397.336 200.223 397.93C200.223 398.524 200.705 399.006 201.299 399.006C201.893 399.006 202.375 398.524 202.375 397.93ZM205.602 397.93C205.602 397.336 205.12 396.854 204.526 396.854C203.932 396.854 203.45 397.336 203.45 397.93C203.45 398.524 203.932 399.006 204.526 399.006C205.12 399.006 205.602 398.524 205.602 397.93Z" fill="#001943"/>
<path d="M216.882 299.305H213.117C212.604 299.305 212.189 298.89 212.189 298.376C212.189 297.863 212.604 297.448 213.117 297.448H216.882C217.395 297.448 217.811 297.863 217.811 298.376C217.811 298.889 217.396 299.305 216.882 299.305ZM217.811 302.679C217.811 302.166 217.396 301.751 216.882 301.751H213.117C212.604 301.751 212.189 302.166 212.189 302.679C212.189 303.192 212.604 303.608 213.117 303.608H216.882C217.396 303.608 217.811 303.193 217.811 302.679ZM217.811 306.982C217.811 306.469 217.396 306.054 216.882 306.054H213.117C212.604 306.054 212.189 306.469 212.189 306.982C212.189 307.495 212.604 307.911 213.117 307.911H216.882C217.396 307.911 217.811 307.496 217.811 306.982ZM217.811 311.285C217.811 310.772 217.396 310.356 216.882 310.356H213.117C212.604 310.356 212.189 310.771 212.189 311.285C212.189 311.798 212.604 312.214 213.117 312.214H216.882C217.396 312.214 217.811 311.799 217.811 311.285ZM217.811 315.589C217.811 315.076 217.396 314.66 216.882 314.66H213.117C212.604 314.66 212.189 315.075 212.189 315.589C212.189 316.102 212.604 316.517 213.117 316.517H216.882C217.396 316.517 217.811 316.102 217.811 315.589ZM217.811 319.892C217.811 319.379 217.396 318.964 216.882 318.964H213.117C212.604 318.964 212.189 319.379 212.189 319.892C212.189 320.405 212.604 320.821 213.117 320.821H216.882C217.396 320.821 217.811 320.406 217.811 319.892ZM217.811 324.196C217.811 323.683 217.396 323.267 216.882 323.267H213.117C212.604 323.267 212.189 323.682 212.189 324.196C212.189 324.709 212.604 325.125 213.117 325.125H216.882C217.396 325.124 217.811 324.709 217.811 324.196ZM217.811 328.499C217.811 327.986 217.396 327.57 216.882 327.57H213.117C212.604 327.57 212.189 327.985 212.189 328.499C212.189 329.012 212.604 329.427 213.117 329.427H216.882C217.396 329.427 217.811 329.012 217.811 328.499ZM231.897 298.376C231.897 297.863 231.482 297.448 230.968 297.448H221.084C220.571 297.448 220.155 297.863 220.155 298.376C220.155 298.889 220.57 299.305 221.084 299.305H230.968C231.482 299.305 231.897 298.889 231.897 298.376ZM231.897 302.679C231.897 302.166 231.482 301.751 230.968 301.751H221.084C220.571 301.751 220.155 302.166 220.155 302.679C220.155 303.192 220.57 303.608 221.084 303.608H230.968C231.482 303.608 231.897 303.193 231.897 302.679ZM231.897 306.982C231.897 306.469 231.482 306.054 230.968 306.054H221.084C220.571 306.054 220.155 306.469 220.155 306.982C220.155 307.495 220.57 307.911 221.084 307.911H230.968C231.482 307.911 231.897 307.496 231.897 306.982ZM231.897 311.285C231.897 310.772 231.482 310.356 230.968 310.356H221.084C220.571 310.356 220.155 310.771 220.155 311.285C220.155 311.798 220.57 312.214 221.084 312.214H230.968C231.482 312.214 231.897 311.799 231.897 311.285ZM231.897 315.589C231.897 315.076 231.482 314.66 230.968 314.66H221.084C220.571 314.66 220.155 315.075 220.155 315.589C220.155 316.102 220.57 316.517 221.084 316.517H230.968C231.482 316.517 231.897 316.102 231.897 315.589ZM243.731 319.892C243.731 319.379 243.316 318.964 242.802 318.964H232.918C232.405 318.964 231.989 319.379 231.989 319.892C231.989 320.405 232.404 320.821 232.918 320.821H242.802C243.316 320.821 243.731 320.406 243.731 319.892ZM243.731 324.196C243.731 323.683 243.316 323.267 242.802 323.267H232.918C232.405 323.267 231.989 323.682 231.989 324.196C231.989 324.709 232.404 325.125 232.918 325.125H242.802C243.316 325.124 243.731 324.709 243.731 324.196ZM243.731 328.499C243.731 327.986 243.316 327.57 242.802 327.57H232.918C232.405 327.57 231.989 327.985 231.989 328.499C231.989 329.012 232.404 329.427 232.918 329.427H242.802C243.316 329.427 243.731 329.012 243.731 328.499ZM236.247 298.376C236.247 297.782 235.765 297.3 235.171 297.3C234.577 297.3 234.095 297.781 234.095 298.376C234.095 298.97 234.576 299.452 235.171 299.452C235.765 299.452 236.247 298.97 236.247 298.376ZM239.474 298.376C239.474 297.782 238.992 297.3 238.398 297.3C237.804 297.3 237.322 297.781 237.322 298.376C237.322 298.97 237.804 299.452 238.398 299.452C238.993 299.452 239.474 298.97 239.474 298.376ZM242.702 298.376C242.702 297.782 242.22 297.3 241.626 297.3C241.032 297.3 240.55 297.781 240.55 298.376C240.55 298.97 241.032 299.452 241.626 299.452C242.22 299.452 242.702 298.97 242.702 298.376ZM245.929 298.376C245.929 297.782 245.447 297.3 244.853 297.3C244.259 297.3 243.777 297.781 243.777 298.376C243.777 298.97 244.259 299.452 244.853 299.452C245.448 299.452 245.929 298.97 245.929 298.376ZM249.157 298.376C249.157 297.782 248.675 297.3 248.081 297.3C247.487 297.3 247.005 297.781 247.005 298.376C247.005 298.97 247.487 299.452 248.081 299.452C248.675 299.452 249.157 298.97 249.157 298.376ZM252.384 298.376C252.384 297.782 251.902 297.3 251.308 297.3C250.714 297.3 250.232 297.781 250.232 298.376C250.232 298.97 250.714 299.452 251.308 299.452C251.902 299.452 252.384 298.97 252.384 298.376ZM236.247 306.983C236.247 306.389 235.765 305.907 235.171 305.907C234.577 305.907 234.095 306.389 234.095 306.983C234.095 307.577 234.576 308.059 235.171 308.059C235.765 308.058 236.247 307.577 236.247 306.983ZM239.474 306.983C239.474 306.389 238.992 305.907 238.398 305.907C237.804 305.907 237.322 306.389 237.322 306.983C237.322 307.577 237.804 308.059 238.398 308.059C238.993 308.058 239.474 307.577 239.474 306.983ZM242.702 306.983C242.702 306.389 242.22 305.907 241.626 305.907C241.032 305.907 240.55 306.389 240.55 306.983C240.55 307.577 241.032 308.059 241.626 308.059C242.22 308.058 242.702 307.577 242.702 306.983ZM245.929 306.983C245.929 306.389 245.447 305.907 244.853 305.907C244.259 305.907 243.777 306.389 243.777 306.983C243.777 307.577 244.259 308.059 244.853 308.059C245.448 308.058 245.929 307.577 245.929 306.983ZM249.157 306.983C249.157 306.389 248.675 305.907 248.081 305.907C247.487 305.907 247.005 306.389 247.005 306.983C247.005 307.577 247.487 308.059 248.081 308.059C248.675 308.058 249.157 307.577 249.157 306.983ZM252.384 306.983C252.384 306.389 251.902 305.907 251.308 305.907C250.714 305.907 250.232 306.389 250.232 306.983C250.232 307.577 250.714 308.059 251.308 308.059C251.902 308.058 252.384 307.577 252.384 306.983ZM247.274 319.354C247.274 318.76 246.792 318.278 246.198 318.278C245.604 318.278 245.122 318.76 245.122 319.354C245.122 319.948 245.604 320.43 246.198 320.43C246.792 320.43 247.274 319.948 247.274 319.354ZM250.502 319.354C250.502 318.76 250.02 318.278 249.426 318.278C248.832 318.278 248.35 318.76 248.35 319.354C248.35 319.948 248.831 320.43 249.426 320.43C250.02 320.43 250.502 319.948 250.502 319.354ZM253.729 319.354C253.729 318.76 253.247 318.278 252.653 318.278C252.059 318.278 251.577 318.76 251.577 319.354C251.577 319.948 252.059 320.43 252.653 320.43C253.247 320.43 253.729 319.948 253.729 319.354ZM256.956 319.354C256.956 318.76 256.474 318.278 255.88 318.278C255.286 318.278 254.804 318.76 254.804 319.354C254.804 319.948 255.286 320.43 255.88 320.43C256.475 320.43 256.956 319.948 256.956 319.354ZM260.184 319.354C260.184 318.76 259.702 318.278 259.108 318.278C258.514 318.278 258.032 318.76 258.032 319.354C258.032 319.948 258.513 320.43 259.108 320.43C259.702 320.43 260.184 319.948 260.184 319.354ZM263.411 319.354C263.411 318.76 262.929 318.278 262.335 318.278C261.741 318.278 261.259 318.76 261.259 319.354C261.259 319.948 261.741 320.43 262.335 320.43C262.929 320.43 263.411 319.948 263.411 319.354ZM247.274 328.23C247.274 327.636 246.792 327.154 246.198 327.154C245.604 327.154 245.122 327.636 245.122 328.23C245.122 328.824 245.604 329.306 246.198 329.306C246.792 329.305 247.274 328.824 247.274 328.23ZM250.502 328.23C250.502 327.636 250.02 327.154 249.426 327.154C248.832 327.154 248.35 327.636 248.35 328.23C248.35 328.824 248.831 329.306 249.426 329.306C250.02 329.305 250.502 328.824 250.502 328.23ZM253.729 328.23C253.729 327.636 253.247 327.154 252.653 327.154C252.059 327.154 251.577 327.636 251.577 328.23C251.577 328.824 252.059 329.306 252.653 329.306C253.247 329.305 253.729 328.824 253.729 328.23ZM256.956 328.23C256.956 327.636 256.474 327.154 255.88 327.154C255.286 327.154 254.804 327.636 254.804 328.23C254.804 328.824 255.286 329.306 255.88 329.306C256.475 329.305 256.956 328.824 256.956 328.23ZM260.184 328.23C260.184 327.636 259.702 327.154 259.108 327.154C258.514 327.154 258.032 327.636 258.032 328.23C258.032 328.824 258.513 329.306 259.108 329.306C259.702 329.305 260.184 328.824 260.184 328.23ZM263.411 328.23C263.411 327.636 262.929 327.154 262.335 327.154C261.741 327.154 261.259 327.636 261.259 328.23C261.259 328.824 261.741 329.306 262.335 329.306C262.929 329.305 263.411 328.824 263.411 328.23Z" fill="#001943"/>
<path d="M216.882 334.571H213.117C212.604 334.571 212.189 334.156 212.189 333.642C212.189 333.129 212.604 332.713 213.117 332.713H216.882C217.395 332.713 217.811 333.128 217.811 333.642C217.811 334.155 217.396 334.571 216.882 334.571ZM217.811 337.945C217.811 337.432 217.396 337.017 216.882 337.017H213.117C212.604 337.017 212.189 337.432 212.189 337.945C212.189 338.458 212.604 338.874 213.117 338.874H216.882C217.396 338.874 217.811 338.459 217.811 337.945ZM217.811 342.248C217.811 341.735 217.396 341.319 216.882 341.319H213.117C212.604 341.319 212.189 341.734 212.189 342.248C212.189 342.761 212.604 343.177 213.117 343.177H216.882C217.396 343.177 217.811 342.762 217.811 342.248ZM217.811 346.552C217.811 346.039 217.396 345.623 216.882 345.623H213.117C212.604 345.623 212.189 346.038 212.189 346.552C212.189 347.065 212.604 347.48 213.117 347.48H216.882C217.396 347.48 217.811 347.065 217.811 346.552ZM217.811 350.854C217.811 350.341 217.396 349.925 216.882 349.925H213.117C212.604 349.925 212.189 350.34 212.189 350.854C212.189 351.367 212.604 351.783 213.117 351.783H216.882C217.396 351.783 217.811 351.368 217.811 350.854ZM217.811 355.159C217.811 354.646 217.396 354.23 216.882 354.23H213.117C212.604 354.23 212.189 354.645 212.189 355.159C212.189 355.672 212.604 356.088 213.117 356.088H216.882C217.396 356.087 217.811 355.672 217.811 355.159ZM217.811 359.462C217.811 358.949 217.396 358.533 216.882 358.533H213.117C212.604 358.533 212.189 358.948 212.189 359.462C212.189 359.975 212.604 360.39 213.117 360.39H216.882C217.396 360.39 217.811 359.975 217.811 359.462ZM217.811 363.765C217.811 363.252 217.396 362.836 216.882 362.836H213.117C212.604 362.836 212.189 363.251 212.189 363.765C212.189 364.278 212.604 364.694 213.117 364.694H216.882C217.396 364.693 217.811 364.278 217.811 363.765ZM231.897 333.642C231.897 333.129 231.482 332.713 230.968 332.713H221.084C220.571 332.713 220.155 333.128 220.155 333.642C220.155 334.155 220.57 334.571 221.084 334.571H230.968C231.482 334.571 231.897 334.155 231.897 333.642ZM231.897 337.945C231.897 337.432 231.482 337.017 230.968 337.017H221.084C220.571 337.017 220.155 337.432 220.155 337.945C220.155 338.458 220.57 338.874 221.084 338.874H230.968C231.482 338.874 231.897 338.459 231.897 337.945ZM231.897 342.248C231.897 341.735 231.482 341.319 230.968 341.319H221.084C220.571 341.319 220.155 341.734 220.155 342.248C220.155 342.761 220.57 343.177 221.084 343.177H230.968C231.482 343.177 231.897 342.762 231.897 342.248ZM231.897 346.552C231.897 346.039 231.482 345.623 230.968 345.623H221.084C220.571 345.623 220.155 346.038 220.155 346.552C220.155 347.065 220.57 347.48 221.084 347.48H230.968C231.482 347.48 231.897 347.065 231.897 346.552ZM231.897 350.854C231.897 350.341 231.482 349.925 230.968 349.925H221.084C220.571 349.925 220.155 350.34 220.155 350.854C220.155 351.367 220.57 351.783 221.084 351.783H230.968C231.482 351.783 231.897 351.368 231.897 350.854ZM243.731 355.159C243.731 354.646 243.316 354.23 242.802 354.23H232.918C232.405 354.23 231.989 354.645 231.989 355.159C231.989 355.672 232.404 356.088 232.918 356.088H242.802C243.316 356.087 243.731 355.672 243.731 355.159ZM243.731 359.462C243.731 358.949 243.316 358.533 242.802 358.533H232.918C232.405 358.533 231.989 358.948 231.989 359.462C231.989 359.975 232.404 360.39 232.918 360.39H242.802C243.316 360.39 243.731 359.975 243.731 359.462ZM243.731 363.765C243.731 363.252 243.316 362.836 242.802 362.836H232.918C232.405 362.836 231.989 363.251 231.989 363.765C231.989 364.278 232.404 364.694 232.918 364.694H242.802C243.316 364.693 243.731 364.278 243.731 363.765ZM236.247 333.642C236.247 333.048 235.765 332.566 235.171 332.566C234.577 332.566 234.095 333.048 234.095 333.642C234.095 334.236 234.576 334.718 235.171 334.718C235.765 334.718 236.247 334.236 236.247 333.642ZM239.474 333.642C239.474 333.048 238.992 332.566 238.398 332.566C237.804 332.566 237.322 333.048 237.322 333.642C237.322 334.236 237.804 334.718 238.398 334.718C238.993 334.718 239.474 334.236 239.474 333.642ZM242.702 333.642C242.702 333.048 242.22 332.566 241.626 332.566C241.032 332.566 240.55 333.048 240.55 333.642C240.55 334.236 241.032 334.718 241.626 334.718C242.22 334.718 242.702 334.236 242.702 333.642ZM245.929 333.642C245.929 333.048 245.447 332.566 244.853 332.566C244.259 332.566 243.777 333.048 243.777 333.642C243.777 334.236 244.259 334.718 244.853 334.718C245.448 334.718 245.929 334.236 245.929 333.642ZM249.157 333.642C249.157 333.048 248.675 332.566 248.081 332.566C247.487 332.566 247.005 333.048 247.005 333.642C247.005 334.236 247.487 334.718 248.081 334.718C248.675 334.718 249.157 334.236 249.157 333.642ZM252.384 333.642C252.384 333.048 251.902 332.566 251.308 332.566C250.714 332.566 250.232 333.048 250.232 333.642C250.232 334.236 250.714 334.718 251.308 334.718C251.902 334.718 252.384 334.236 252.384 333.642ZM236.247 342.248C236.247 341.654 235.765 341.172 235.171 341.172C234.577 341.172 234.095 341.654 234.095 342.248C234.095 342.842 234.576 343.324 235.171 343.324C235.765 343.324 236.247 342.843 236.247 342.248ZM239.474 342.248C239.474 341.654 238.992 341.172 238.398 341.172C237.804 341.172 237.322 341.654 237.322 342.248C237.322 342.842 237.804 343.324 238.398 343.324C238.993 343.324 239.474 342.843 239.474 342.248ZM242.702 342.248C242.702 341.654 242.22 341.172 241.626 341.172C241.032 341.172 240.55 341.654 240.55 342.248C240.55 342.842 241.032 343.324 241.626 343.324C242.22 343.324 242.702 342.843 242.702 342.248ZM245.929 342.248C245.929 341.654 245.447 341.172 244.853 341.172C244.259 341.172 243.777 341.654 243.777 342.248C243.777 342.842 244.259 343.324 244.853 343.324C245.448 343.324 245.929 342.843 245.929 342.248ZM249.157 342.248C249.157 341.654 248.675 341.172 248.081 341.172C247.487 341.172 247.005 341.654 247.005 342.248C247.005 342.842 247.487 343.324 248.081 343.324C248.675 343.324 249.157 342.843 249.157 342.248ZM252.384 342.248C252.384 341.654 251.902 341.172 251.308 341.172C250.714 341.172 250.232 341.654 250.232 342.248C250.232 342.842 250.714 343.324 251.308 343.324C251.902 343.324 252.384 342.843 252.384 342.248ZM247.274 354.62C247.274 354.026 246.792 353.544 246.198 353.544C245.604 353.544 245.122 354.026 245.122 354.62C245.122 355.214 245.604 355.696 246.198 355.696C246.792 355.696 247.274 355.214 247.274 354.62ZM250.502 354.62C250.502 354.026 250.02 353.544 249.426 353.544C248.832 353.544 248.35 354.026 248.35 354.62C248.35 355.214 248.831 355.696 249.426 355.696C250.02 355.696 250.502 355.214 250.502 354.62ZM253.729 354.62C253.729 354.026 253.247 353.544 252.653 353.544C252.059 353.544 251.577 354.026 251.577 354.62C251.577 355.214 252.059 355.696 252.653 355.696C253.247 355.696 253.729 355.214 253.729 354.62ZM256.956 354.62C256.956 354.026 256.474 353.544 255.88 353.544C255.286 353.544 254.804 354.026 254.804 354.62C254.804 355.214 255.286 355.696 255.88 355.696C256.475 355.696 256.956 355.214 256.956 354.62ZM260.184 354.62C260.184 354.026 259.702 353.544 259.108 353.544C258.514 353.544 258.032 354.026 258.032 354.62C258.032 355.214 258.513 355.696 259.108 355.696C259.702 355.696 260.184 355.214 260.184 354.62ZM263.411 354.62C263.411 354.026 262.929 353.544 262.335 353.544C261.741 353.544 261.259 354.026 261.259 354.62C261.259 355.214 261.741 355.696 262.335 355.696C262.929 355.696 263.411 355.214 263.411 354.62ZM247.274 363.496C247.274 362.902 246.792 362.42 246.198 362.42C245.604 362.42 245.122 362.902 245.122 363.496C245.122 364.09 245.604 364.572 246.198 364.572C246.792 364.571 247.274 364.09 247.274 363.496ZM250.502 363.496C250.502 362.902 250.02 362.42 249.426 362.42C248.832 362.42 248.35 362.902 248.35 363.496C248.35 364.09 248.831 364.572 249.426 364.572C250.02 364.571 250.502 364.09 250.502 363.496ZM253.729 363.496C253.729 362.902 253.247 362.42 252.653 362.42C252.059 362.42 251.577 362.902 251.577 363.496C251.577 364.09 252.059 364.572 252.653 364.572C253.247 364.571 253.729 364.09 253.729 363.496ZM256.956 363.496C256.956 362.902 256.474 362.42 255.88 362.42C255.286 362.42 254.804 362.902 254.804 363.496C254.804 364.09 255.286 364.572 255.88 364.572C256.475 364.571 256.956 364.09 256.956 363.496ZM260.184 363.496C260.184 362.902 259.702 362.42 259.108 362.42C258.514 362.42 258.032 362.902 258.032 363.496C258.032 364.09 258.513 364.572 259.108 364.572C259.702 364.571 260.184 364.09 260.184 363.496ZM263.411 363.496C263.411 362.902 262.929 362.42 262.335 362.42C261.741 362.42 261.259 362.902 261.259 363.496C261.259 364.09 261.741 364.572 262.335 364.572C262.929 364.571 263.411 364.09 263.411 363.496Z" fill="#001943"/>
<path d="M330.913 278.323C330.913 278.323 317.048 288.288 309.683 302.586C302.317 316.884 295.385 348.947 286.286 364.111C277.187 379.276 268.955 390.541 260.289 397.04C251.624 403.539 238.625 407.872 231.26 409.172C223.894 410.472 203.964 412.638 203.964 412.638L204.831 429.103C204.831 429.103 221.729 429.536 253.791 426.503C285.853 423.47 324.848 400.073 324.848 400.073L323.548 448.167H435.333C435.333 448.167 442.265 379.709 438.799 344.614C435.333 309.519 415.402 283.955 398.504 274.423C381.606 264.891 363.842 267.057 353.01 267.924C342.178 268.791 330.913 278.323 330.913 278.323Z" fill="#616161"/>
<mask id="mask0_0_1" style="mask-type:luminance" maskUnits="userSpaceOnUse" x="203" y="267" width="237" height="182">
<path d="M330.913 278.323C330.913 278.323 317.048 288.288 309.683 302.586C302.317 316.884 295.385 348.947 286.286 364.111C277.187 379.276 268.955 390.541 260.289 397.04C251.624 403.539 238.625 407.872 231.26 409.172C223.894 410.472 203.964 412.638 203.964 412.638L204.831 429.103C204.831 429.103 221.729 429.536 253.791 426.503C285.853 423.47 324.848 400.073 324.848 400.073L323.548 448.167H435.333C435.333 448.167 442.265 379.709 438.799 344.614C435.333 309.519 415.402 283.955 398.504 274.423C381.606 264.891 363.842 267.057 353.01 267.924C342.178 268.791 330.913 278.323 330.913 278.323Z" fill="white"/>
</mask>
<g mask="url(#mask0_0_1)">
<path opacity="0.3" d="M398.504 274.424C386.478 267.64 374.015 266.783 363.922 267.164L341.113 303.883C341.113 303.883 367.5 290.001 375 288.001C382.5 286.001 398 292.501 402.5 309.001C407 325.501 408.5 389.001 410 407.501C411.5 426.001 403.5 441.001 401 443.501C399.835 444.666 397.695 446.373 397.004 448.168H435.332C435.332 448.168 442.264 379.71 438.798 344.615C435.332 309.519 415.402 283.956 398.504 274.424Z" fill="black"/>
</g>
<mask id="mask1_0_1" style="mask-type:luminance" maskUnits="userSpaceOnUse" x="203" y="267" width="237" height="182">
<path d="M330.913 278.323C330.913 278.323 317.048 288.288 309.683 302.586C302.317 316.884 295.385 348.947 286.286 364.111C277.187 379.276 268.955 390.541 260.289 397.04C251.624 403.539 238.625 407.872 231.26 409.172C223.894 410.472 203.964 412.638 203.964 412.638L204.831 429.103C204.831 429.103 221.729 429.536 253.791 426.503C285.853 423.47 324.848 400.073 324.848 400.073L323.548 448.167H435.333C435.333 448.167 442.265 379.709 438.799 344.614C435.333 309.519 415.402 283.955 398.504 274.423C381.606 264.891 363.842 267.057 353.01 267.924C342.178 268.791 330.913 278.323 330.913 278.323Z" fill="white"/>
</mask>
<g mask="url(#mask1_0_1)">
<path d="M345.903 404.271C324.951 403.632 329.952 376.142 324.438 360.69C318.924 345.238 318.798 318.965 340.179 318.488C361.56 318.011 365.223 347.451 368.518 362.847C371.813 378.244 366.855 404.91 345.903 404.271ZM326.259 360.548C331.513 374.13 327.156 401.314 346.197 401.766C365.238 402.218 370.063 377.248 367.019 362.796C363.975 348.344 359.612 320.728 340.226 321.08C320.839 321.431 321.005 346.965 326.259 360.548ZM352.544 328.929C350.259 335.937 348.355 343.034 346.442 350.145C347.387 351.972 348.448 353.632 349.331 355.516C350.213 357.4 350.716 359.532 351.359 361.526C356.248 361.849 361.113 362.308 366.01 362.504C362.932 351.607 359.964 337.638 352.544 328.929ZM339.57 349.912C336.619 342.599 333.16 335.552 329.651 328.496C322.318 338.311 323.408 349.747 328.173 360.448C331.724 360.271 335.237 360.194 338.757 360.76C338.078 357.053 337.611 353.303 339.57 349.912ZM347.772 373.545C345.512 375.513 343.768 375.732 342.175 372.997C340.632 380.24 338.648 387.411 336.266 394.422C342.12 401.458 351.11 401.598 357.423 394.964C353.853 387.767 350.033 381.323 347.772 373.545ZM347.961 361.346C347.579 358.744 346.533 353.532 343.026 353.337C339.52 353.142 339.849 358.895 340.364 361.203C340.879 363.511 341.26 369.655 344.512 369.756C347.764 369.857 348.343 363.948 347.961 361.346Z" fill="#001943"/>
</g>
<mask id="mask2_0_1" style="mask-type:luminance" maskUnits="userSpaceOnUse" x="203" y="267" width="237" height="182">
<path d="M330.913 278.323C330.913 278.323 317.048 288.288 309.683 302.586C302.317 316.884 295.385 348.947 286.286 364.111C277.187 379.276 268.955 390.541 260.289 397.04C251.624 403.539 238.625 407.872 231.26 409.172C223.894 410.472 203.964 412.638 203.964 412.638L204.831 429.103C204.831 429.103 221.729 429.536 253.791 426.503C285.853 423.47 324.848 400.073 324.848 400.073L323.548 448.167H435.333C435.333 448.167 442.265 379.709 438.799 344.614C435.333 309.519 415.402 283.955 398.504 274.423C381.606 264.891 363.842 267.057 353.01 267.924C342.178 268.791 330.913 278.323 330.913 278.323Z" fill="white"/>
</mask>
<g mask="url(#mask2_0_1)">
<path opacity="0.3" d="M319.5 357.5C319.5 357.5 313.5 334.5 314 345C314.5 355.5 315 380 303.5 393C292 406 283 402.5 274 408C268.82 411.165 254.596 420.023 243.718 427.386C246.892 427.13 250.243 426.839 253.79 426.503C285.852 423.47 324.847 400.073 324.847 400.073L324.69 405.892C325.2 400.722 326.148 383.26 319.5 357.5Z" fill="black"/>
</g>
<mask id="mask3_0_1" style="mask-type:luminance" maskUnits="userSpaceOnUse" x="203" y="267" width="237" height="182">
<path d="M330.913 278.323C330.913 278.323 317.048 288.288 309.683 302.586C302.317 316.884 295.385 348.947 286.286 364.111C277.187 379.276 268.955 390.541 260.289 397.04C251.624 403.539 238.625 407.872 231.26 409.172C223.894 410.472 203.964 412.638 203.964 412.638L204.831 429.103C204.831 429.103 221.729 429.536 253.791 426.503C285.853 423.47 324.848 400.073 324.848 400.073L323.548 448.167H435.333C435.333 448.167 442.265 379.709 438.799 344.614C435.333 309.519 415.402 283.955 398.504 274.423C381.606 264.891 363.842 267.057 353.01 267.924C342.178 268.791 330.913 278.323 330.913 278.323Z" fill="white"/>
</mask>
<g mask="url(#mask3_0_1)">
<path d="M325.28 395.741C325.28 395.741 323.547 356.313 310.549 332.916" stroke="#263238" stroke-miterlimit="10" stroke-linecap="round" stroke-linejoin="round"/>
</g>
<path d="M330.913 278.323C330.913 278.323 317.048 288.288 309.683 302.586C302.317 316.884 295.385 348.947 286.286 364.111C277.187 379.276 268.955 390.541 260.289 397.04C251.624 403.539 238.625 407.872 231.26 409.172C223.894 410.472 203.964 412.638 203.964 412.638L204.831 429.103C204.831 429.103 221.729 429.536 253.791 426.503C285.853 423.47 324.848 400.073 324.848 400.073L323.548 448.167H435.333C435.333 448.167 442.265 379.709 438.799 344.614C435.333 309.519 415.402 283.955 398.504 274.423C381.606 264.891 363.842 267.057 353.01 267.924C342.178 268.791 330.913 278.323 330.913 278.323Z" stroke="#263238" stroke-miterlimit="10" stroke-linecap="round" stroke-linejoin="round"/>
<path d="M220.353 424.987C220.353 424.987 212.45 412.598 206.469 406.19C200.488 399.782 184.041 404.268 177.846 405.122C171.652 405.976 157.981 414.52 155.418 415.802C152.855 417.084 156.486 419.86 160.117 420.715C163.748 421.569 167.593 418.152 171.224 417.511C174.855 416.87 173.574 418.579 178.7 422.637C183.826 426.695 185.749 430.54 194.079 432.463C202.409 434.385 211.808 433.317 217.362 431.395C222.916 429.472 220.353 424.987 220.353 424.987Z" fill="#263238" stroke="#616161" stroke-miterlimit="10" stroke-linecap="round" stroke-linejoin="round"/>
<path d="M217.79 420.928C217.79 420.928 210.955 421.569 207.11 423.705C203.265 425.841 202.411 430.754 204.76 431.822C207.11 432.89 214.372 433.531 219.071 431.608C223.77 429.686 223.557 427.336 222.489 423.918C221.421 420.501 217.79 420.928 217.79 420.928Z" fill="#263238" stroke="#616161" stroke-miterlimit="10" stroke-linecap="round" stroke-linejoin="round"/>
<path d="M186.604 401.277C186.604 401.277 180.837 398.927 177.846 400.85C174.856 402.772 173.788 404.908 174.001 408.753C174.215 412.598 172.292 420.074 171.865 423.705C171.438 427.336 172.933 428.191 175.71 428.618C178.487 429.045 179.769 426.696 180.836 423.278C181.904 419.86 184.254 409.394 185.535 406.831C186.818 404.267 186.604 401.277 186.604 401.277Z" fill="#263238" stroke="#616161" stroke-miterlimit="10" stroke-linecap="round" stroke-linejoin="round"/>
<path d="M197.925 402.345C197.925 402.345 195.789 398.5 192.371 398.5C188.953 398.5 184.895 398.5 184.681 401.49C184.467 404.48 182.545 416.442 180.409 421.141C178.273 425.84 181.05 428.617 184.254 428.617C187.458 428.617 187.672 428.19 190.662 423.063C193.652 417.937 195.788 408.111 195.788 408.111" fill="#263238"/>
<path d="M197.925 402.345C197.925 402.345 195.789 398.5 192.371 398.5C188.953 398.5 184.895 398.5 184.681 401.49C184.467 404.48 182.545 416.442 180.409 421.141C178.273 425.84 181.05 428.617 184.254 428.617C187.458 428.617 187.672 428.19 190.662 423.063C193.652 417.937 195.788 408.111 195.788 408.111" stroke="#616161" stroke-miterlimit="10" stroke-linecap="round" stroke-linejoin="round"/>
<path d="M208.605 409.18C208.605 409.18 206.042 402.131 202.197 401.49C198.352 400.849 195.362 401.063 195.148 405.121C194.934 409.18 194.294 417.083 191.73 421.782C189.166 426.481 187.031 428.617 190.235 429.685C193.439 430.753 195.575 430.967 198.138 428.19C200.701 425.413 204.546 413.238 204.546 412.597" fill="#263238"/>
<path d="M208.605 409.18C208.605 409.18 206.042 402.131 202.197 401.49C198.352 400.849 195.362 401.063 195.148 405.121C194.934 409.18 194.294 417.083 191.73 421.782C189.166 426.481 187.031 428.617 190.235 429.685C193.439 430.753 195.575 430.967 198.138 428.19C200.701 425.413 204.546 413.238 204.546 412.597" stroke="#616161" stroke-miterlimit="10" stroke-linecap="round" stroke-linejoin="round"/>
<path d="M278.766 207.486C278.766 207.486 280.535 228.711 280.093 247.283C279.651 265.855 297.338 279.12 307.951 286.195C318.563 293.27 328.291 296.807 332.713 299.461C337.135 302.114 339.346 305.652 339.346 305.652C339.346 305.652 344.21 298.577 352.169 295.482C360.128 292.387 372.952 282.659 375.605 271.604C378.258 260.549 372.952 237.114 345.536 219.426C318.121 201.739 284.957 203.065 284.957 203.065L278.766 207.486Z" fill="#474747" stroke="#263238" stroke-miterlimit="10" stroke-linecap="round" stroke-linejoin="round"/>
<path d="M289.368 208.184C289.368 208.184 289.368 226.88 290.352 230.816C291.336 234.752 297.896 253.448 299.536 258.696C301.176 263.944 313.968 287.232 316.92 290.84C319.872 294.448 332.664 285.592 332.664 285.592L339.88 301.336C339.88 301.336 355.468 275.457 359.076 269.225C362.684 262.993 364.733 256.101 362.109 246.261C359.485 236.421 359.232 236.064 342.832 228.192C326.432 220.32 302.488 211.136 297.896 207.856C293.304 204.576 290.024 205.888 289.368 208.184Z" fill="white"/>
<mask id="mask4_0_1" style="mask-type:luminance" maskUnits="userSpaceOnUse" x="289" y="205" width="75" height="97">
<path d="M289.368 208.184C289.368 208.184 289.368 226.88 290.352 230.816C291.336 234.752 297.896 253.448 299.536 258.696C301.176 263.944 313.968 287.232 316.92 290.84C319.872 294.448 332.664 285.592 332.664 285.592L339.88 301.336C339.88 301.336 355.468 275.457 359.076 269.225C362.684 262.993 364.733 256.101 362.109 246.261C359.485 236.421 359.232 236.064 342.832 228.192C326.432 220.32 302.488 211.136 297.896 207.856C293.304 204.576 290.024 205.888 289.368 208.184Z" fill="white"/>
</mask>
<g mask="url(#mask4_0_1)">
<path d="M362.109 246.261C359.485 236.421 359.232 236.064 342.832 228.192C337.656 225.708 331.729 223.093 325.896 220.574C332.649 230.183 345.441 249.205 347.156 257.783C349.502 269.513 336.599 280.852 324.87 286.716C321.346 288.478 318.851 289.885 317.077 290.994C319.655 293.536 328.15 288.509 331.391 286.432L352.631 270.685C352.631 270.685 354.934 271.078 356.582 273.463C357.639 271.681 358.508 270.207 359.077 269.224C362.684 262.992 364.733 256.101 362.109 246.261Z" fill="#001943"/>
</g>
<mask id="mask5_0_1" style="mask-type:luminance" maskUnits="userSpaceOnUse" x="289" y="205" width="75" height="97">
<path d="M289.368 208.184C289.368 208.184 289.368 226.88 290.352 230.816C291.336 234.752 297.896 253.448 299.536 258.696C301.176 263.944 313.968 287.232 316.92 290.84C319.872 294.448 332.664 285.592 332.664 285.592L339.88 301.336C339.88 301.336 355.468 275.457 359.076 269.225C362.684 262.993 364.733 256.101 362.109 246.261C359.485 236.421 359.232 236.064 342.832 228.192C326.432 220.32 302.488 211.136 297.896 207.856C293.304 204.576 290.024 205.888 289.368 208.184Z" fill="white"/>
</mask>
<g mask="url(#mask5_0_1)">
<path opacity="0.5" d="M362.109 246.261C359.485 236.421 359.232 236.064 342.832 228.192C337.656 225.708 331.729 223.093 325.896 220.574C332.649 230.183 345.441 249.205 347.156 257.783C349.502 269.513 336.599 280.852 324.87 286.716C321.346 288.478 318.851 289.885 317.077 290.994C319.655 293.536 328.15 288.509 331.391 286.432L352.631 270.685C352.631 270.685 354.934 271.078 356.582 273.463C357.639 271.681 358.508 270.207 359.077 269.224C362.684 262.992 364.733 256.101 362.109 246.261Z" fill="white"/>
</g>
<path d="M289.368 208.184C289.368 208.184 289.368 226.88 290.352 230.816C291.336 234.752 297.896 253.448 299.536 258.696C301.176 263.944 313.968 287.232 316.92 290.84C319.872 294.448 332.664 285.592 332.664 285.592L339.88 301.336C339.88 301.336 355.468 275.457 359.076 269.225C362.684 262.993 364.733 256.101 362.109 246.261C359.485 236.421 359.232 236.064 342.832 228.192C326.432 220.32 302.488 211.136 297.896 207.856C293.304 204.576 290.024 205.888 289.368 208.184Z" stroke="#263238" stroke-miterlimit="10" stroke-linecap="round" stroke-linejoin="round"/>
<path d="M291.68 206.896C291.68 206.896 285.042 212.206 283.715 220.836C282.387 229.465 285.043 230.793 289.025 226.81C293.008 222.827 296.327 218.181 296.327 218.181C296.327 218.181 293.008 223.491 297.655 224.819C302.301 226.146 311.595 220.836 314.913 219.509C318.232 218.181 310.93 194.284 291.68 206.896Z" fill="#263238" stroke="#263238" stroke-miterlimit="10" stroke-linecap="round" stroke-linejoin="round"/>
<path d="M291.664 236.392C291.664 236.392 293.632 240 305.112 242.296C316.592 244.592 332.008 243.936 336.928 242.624C341.848 241.312 350.376 237.704 350.376 237.704C350.376 237.704 353.328 237.376 353 240C352.672 242.624 345.456 243.936 345.456 243.936C345.456 243.936 343.816 254.104 340.864 257.056C337.912 260.008 323.152 261.976 316.92 260.992C310.688 260.008 308.72 250.824 307.736 249.512C306.752 248.2 305.768 246.232 303.8 246.232C301.832 246.232 301.832 253.448 302.16 257.056C302.488 260.664 302.816 258.696 299.536 258.696C296.256 258.696 291.008 255.088 290.352 247.544C289.696 240 288.056 236.72 291.664 236.392Z" fill="#263238" stroke="#263238" stroke-miterlimit="10" stroke-linecap="round" stroke-linejoin="round"/>
<path d="M308.701 247.559C308.701 247.559 310.107 255.993 313.972 257.398C317.837 258.804 318.54 258.804 324.514 253.884C330.488 248.964 338.218 250.721 338.218 250.721C338.218 250.721 342.435 246.153 342.435 244.396C342.435 242.639 341.03 243.342 341.03 243.342C341.03 243.342 338.382 245.06 326.605 245.621C322.393 245.822 308.35 244.748 308.35 244.748L308.701 247.559Z" fill="#001943"/>
<path d="M301.928 243.041L302.04 246.518C302.04 246.518 301.928 249.659 298.226 250.78C294.524 251.902 291.16 250.892 291.16 250.892C291.16 250.892 289.814 241.021 289.814 239.9C289.814 238.778 290.263 238.33 290.263 238.33C290.263 238.33 293.74 242.256 301.928 243.041Z" fill="#001943"/>
<path d="M340.105 252.962C340.105 253.858 339.164 254.584 338.002 254.584C336.841 254.584 335.899 253.858 335.899 252.962C335.899 252.066 336.84 251.34 338.002 251.34C339.164 251.34 340.105 252.067 340.105 252.962Z" fill="#001943"/>
<path d="M303.144 247.872C303.144 247.872 300.848 263.944 299.536 268.208C298.224 272.472 310.688 270.504 314.624 269.848" fill="white"/>
<path d="M303.144 247.872C303.144 247.872 300.848 263.944 299.536 268.208C298.224 272.472 310.688 270.504 314.624 269.848" stroke="#263238" stroke-miterlimit="10" stroke-linecap="round" stroke-linejoin="round"/>
<path d="M332.664 285.592C332.664 285.592 342.176 279.688 349.72 273.456" stroke="#263238" stroke-miterlimit="10" stroke-linecap="round" stroke-linejoin="round"/>
<path d="M310.032 240.984C310.032 240.984 311.642 234.548 328.388 235.887" stroke="#263238" stroke-width="3" stroke-miterlimit="10" stroke-linecap="round" stroke-linejoin="round"/>
<path d="M300.848 239.344C300.848 239.344 297.568 233.768 292.32 233.44" stroke="#263238" stroke-width="3" stroke-miterlimit="10" stroke-linecap="round" stroke-linejoin="round"/>
<path d="M339.345 305.651L334.632 328.231L341.192 329.215L339.345 305.651Z" fill="white" stroke="#263238" stroke-miterlimit="10" stroke-linecap="round" stroke-linejoin="round"/>
<path d="M276.422 206.804C276.422 206.804 305.738 223.847 325.194 232.248C344.65 240.65 369.413 253.915 371.181 264.97C372.95 276.025 360.569 286.195 355.705 290.174C350.841 294.154 341.113 303.882 341.113 303.882C341.113 303.882 364.991 290.617 373.392 284.426C381.794 278.236 384.889 267.623 381.351 248.609C377.813 229.595 375.603 200.411 364.99 184.05C354.378 167.689 328.289 176.533 309.275 184.934C290.262 193.336 276.422 206.804 276.422 206.804Z" fill="#616161"/>
<mask id="mask6_0_1" style="mask-type:luminance" maskUnits="userSpaceOnUse" x="276" y="174" width="107" height="130">
<path d="M276.422 206.804C276.422 206.804 305.738 223.847 325.194 232.248C344.65 240.65 369.413 253.915 371.181 264.97C372.95 276.025 360.569 286.195 355.705 290.174C350.841 294.154 341.113 303.882 341.113 303.882C341.113 303.882 364.991 290.617 373.392 284.426C381.794 278.236 384.889 267.623 381.351 248.609C377.813 229.595 375.603 200.411 364.99 184.05C354.378 167.689 328.289 176.533 309.275 184.934C290.262 193.336 276.422 206.804 276.422 206.804Z" fill="white"/>
</mask>
<g mask="url(#mask6_0_1)">
<path opacity="0.3" d="M303.756 210.082C303.756 210.082 322.133 221.03 336.99 228.85C351.848 236.67 370.224 248.4 374.525 255.047C378.826 261.694 377.653 265.604 373.743 272.642C369.833 279.68 364.75 283.59 370.224 283.981C375.698 284.372 381.172 273.815 381.172 265.213C381.172 256.611 379.608 248.009 377.262 233.543C374.916 219.076 368.269 190.534 361.622 183.496C354.975 176.458 343.245 177.631 331.125 185.842C319.004 194.053 342.464 197.963 340.117 204.22C338.452 208.656 328.212 204.31 325.439 203.52C316.095 200.859 311.757 201.261 302.686 204.999C299.939 206.13 301.915 208.985 303.756 210.082Z" fill="black"/>
</g>
<path d="M276.422 206.804C276.422 206.804 305.738 223.847 325.194 232.248C344.65 240.65 369.413 253.915 371.181 264.97C372.95 276.025 360.569 286.195 355.705 290.174C350.841 294.154 341.113 303.882 341.113 303.882C341.113 303.882 364.991 290.617 373.392 284.426C381.794 278.236 384.889 267.623 381.351 248.609C377.813 229.595 375.603 200.411 364.99 184.05C354.378 167.689 328.289 176.533 309.275 184.934C290.262 193.336 276.422 206.804 276.422 206.804Z" stroke="#263238" stroke-miterlimit="10" stroke-linecap="round" stroke-linejoin="round"/>
<path d="M395.038 294.788C395.038 294.788 382.04 294.788 374.241 316.018C366.442 337.248 357.776 390.975 357.776 390.975C357.776 390.975 338.712 405.706 324.414 412.639C310.116 419.571 300.151 423.038 300.151 423.038C300.151 423.038 306.827 436.505 306.217 441.669C306.001 443.501 308.375 446.055 308.375 446.055C308.375 446.055 344.345 443.402 364.709 439.503C385.073 435.604 410.203 426.505 413.669 407.874C417.135 389.243 431.403 347.577 425.771 336.312" fill="#616161"/>
<mask id="mask7_0_1" style="mask-type:luminance" maskUnits="userSpaceOnUse" x="300" y="294" width="128" height="153">
<path d="M395.038 294.788C395.038 294.788 382.04 294.788 374.241 316.018C366.442 337.248 357.776 390.975 357.776 390.975C357.776 390.975 338.712 405.706 324.414 412.639C310.116 419.571 300.151 423.038 300.151 423.038C300.151 423.038 306.827 436.505 306.217 441.669C306.001 443.501 308.375 446.055 308.375 446.055C308.375 446.055 344.345 443.402 364.709 439.503C385.073 435.604 410.203 426.505 413.669 407.874C417.135 389.243 431.403 347.577 425.771 336.312" fill="white"/>
</mask>
<g mask="url(#mask7_0_1)">
<path opacity="0.3" d="M395.038 294.788C395.038 294.788 392.918 294.79 389.878 296.187L390 297.5C390 297.5 397 297 403.5 307C410 317 408 324.5 410 349.5C412 374.5 410.5 398 406 398C401.5 398 388.5 392.5 390.5 395.5C392.5 398.5 395.5 401 395.5 405C395.5 409 386 397.5 383.5 397.5C381 397.5 382.5 399 384 407.5C385.5 416 384 409 368 414C352 419 327 438 320.5 440.5C316.344 442.099 310.148 444.717 306.216 446.4C306.216 446.864 306.216 446.868 306.216 446.868C306.216 446.868 344.344 443.402 364.708 439.502C385.072 435.603 410.202 426.504 413.668 407.873C417.134 389.242 431.432 346.348 425.8 335.083L395.038 294.788Z" fill="black"/>
</g>
<mask id="mask8_0_1" style="mask-type:luminance" maskUnits="userSpaceOnUse" x="300" y="294" width="128" height="153">
<path d="M395.038 294.788C395.038 294.788 382.04 294.788 374.241 316.018C366.442 337.248 357.776 390.975 357.776 390.975C357.776 390.975 338.712 405.706 324.414 412.639C310.116 419.571 300.151 423.038 300.151 423.038C300.151 423.038 306.827 436.505 306.217 441.669C306.001 443.501 308.375 446.055 308.375 446.055C308.375 446.055 344.345 443.402 364.709 439.503C385.073 435.604 410.203 426.505 413.669 407.874C417.135 389.243 431.403 347.577 425.771 336.312" fill="white"/>
</mask>
<g mask="url(#mask8_0_1)">
<path d="M360.376 392.275C360.376 392.275 375.541 394.008 382.906 403.107" stroke="#263238" stroke-miterlimit="10" stroke-linecap="round" stroke-linejoin="round"/>
</g>
<mask id="mask9_0_1" style="mask-type:luminance" maskUnits="userSpaceOnUse" x="300" y="294" width="128" height="153">
<path d="M395.038 294.788C395.038 294.788 382.04 294.788 374.241 316.018C366.442 337.248 357.776 390.975 357.776 390.975C357.776 390.975 338.712 405.706 324.414 412.639C310.116 419.571 300.151 423.038 300.151 423.038C300.151 423.038 306.827 436.505 306.217 441.669C306.001 443.501 308.375 446.055 308.375 446.055C308.375 446.055 344.345 443.402 364.709 439.503C385.073 435.604 410.203 426.505 413.669 407.874C417.135 389.243 431.403 347.577 425.771 336.312" fill="white"/>
</mask>
<g mask="url(#mask9_0_1)">
<path d="M373.807 393.574C373.807 393.574 384.206 393.141 390.705 404.406" stroke="#263238" stroke-miterlimit="10" stroke-linecap="round" stroke-linejoin="round"/>
</g>
<path d="M395.038 294.788C395.038 294.788 382.04 294.788 374.241 316.018C366.442 337.248 357.776 390.975 357.776 390.975C357.776 390.975 338.712 405.706 324.414 412.639C310.116 419.571 300.151 423.038 300.151 423.038C300.151 423.038 306.827 436.505 306.217 441.669C306.001 443.501 308.375 446.055 308.375 446.055C308.375 446.055 344.345 443.402 364.709 439.503C385.073 435.604 410.203 426.505 413.669 407.874C417.135 389.243 431.403 347.577 425.771 336.312" stroke="#263238" stroke-miterlimit="10" stroke-linecap="round" stroke-linejoin="round"/>
<path d="M309.943 434.063C309.559 431.961 308.784 429.953 307.629 428.156C306.403 426.248 304.688 423.906 303.182 423.028C300.473 421.448 294.829 423.254 290.991 423.705C287.153 424.156 285.573 421.899 278.123 416.029C270.673 410.159 237.713 406.096 233.424 406.096C229.135 406.096 225.071 408.354 217.395 408.805C209.719 409.256 207.462 411.514 213.331 415.126C219.201 418.738 227.328 417.384 232.746 415.803C238.164 414.223 242.453 422.801 244.034 422.801C245.614 422.801 244.26 424.381 241.325 425.284C238.39 426.187 231.392 425.284 227.102 425.51C222.813 425.736 216.717 430.928 219.201 432.734C221.684 434.54 228.005 434.314 235.004 434.314C242.002 434.314 253.516 433.411 255.999 433.862C258.482 434.314 265.029 439.054 274.737 442.441C284.445 445.828 292.797 443.344 294.152 443.118C295.506 442.892 303.859 446.956 308.374 446.053C311.526 445.424 310.719 438.306 309.943 434.063Z" fill="#263238" stroke="#616161" stroke-miterlimit="10" stroke-linecap="round" stroke-linejoin="round"/>
<path d="M253.065 403.386C253.065 403.386 246.292 400 242.454 400C238.616 400 237.487 403.838 237.487 407.45C237.487 411.062 236.358 420.77 235.455 423.93C234.552 427.091 236.358 429.348 240.422 428.671C244.486 427.994 247.646 412.191 248.323 408.353C249 404.515 253.064 406.321 254.418 405.418C255.774 404.515 253.065 403.386 253.065 403.386Z" fill="#263238" stroke="#616161" stroke-miterlimit="10" stroke-linecap="round" stroke-linejoin="round"/>
<path d="M265.933 406.547C265.933 406.547 260.515 401.806 256.677 401.355C252.839 400.904 248.776 402.484 247.873 406.096C246.97 409.708 247.421 417.158 246.067 420.77C244.712 424.382 241.326 429.349 244.487 430.026C247.648 430.703 249.905 429.8 251.937 427.543C253.969 425.285 257.129 419.642 259.387 416.03C261.644 412.417 265.933 406.547 265.933 406.547Z" fill="#263238" stroke="#616161" stroke-miterlimit="10" stroke-linecap="round" stroke-linejoin="round"/>
<path d="M285.348 423.93C285.348 423.93 281.284 413.094 274.738 409.03C268.192 404.966 262.999 403.612 260.967 407.675C258.935 411.739 258.258 418.06 255.097 423.252C251.936 428.444 253.065 430.025 257.58 429.573C262.095 429.122 264.127 423.026 267.287 418.963C270.448 414.899 270.673 416.028 270.673 416.028" fill="#263238"/>
<path d="M285.348 423.93C285.348 423.93 281.284 413.094 274.738 409.03C268.192 404.966 262.999 403.612 260.967 407.675C258.935 411.739 258.258 418.06 255.097 423.252C251.936 428.444 253.065 430.025 257.58 429.573C262.095 429.122 264.127 423.026 267.287 418.963C270.448 414.899 270.673 416.028 270.673 416.028" stroke="#616161" stroke-miterlimit="10" stroke-linecap="round" stroke-linejoin="round"/>
<path d="M142.366 438.347H134.575V440.944H142.366V438.347Z" fill="white" stroke="#263238" stroke-miterlimit="10" stroke-linecap="round" stroke-linejoin="round"/>
<path d="M153.332 438.347H145.541V440.944H153.332V438.347Z" fill="white" stroke="#263238" stroke-miterlimit="10" stroke-linecap="round" stroke-linejoin="round"/>
<path d="M164.297 438.347H156.506V440.944H164.297V438.347Z" fill="white" stroke="#263238" stroke-miterlimit="10" stroke-linecap="round" stroke-linejoin="round"/>
<path d="M175.262 438.347H167.471V440.944H175.262V438.347Z" fill="white" stroke="#263238" stroke-miterlimit="10" stroke-linecap="round" stroke-linejoin="round"/>
<path d="M186.227 438.347H178.436V440.944H186.227V438.347Z" fill="white" stroke="#263238" stroke-miterlimit="10" stroke-linecap="round" stroke-linejoin="round"/>
<path d="M197.192 438.347H189.401V440.944H197.192V438.347Z" fill="white" stroke="#263238" stroke-miterlimit="10" stroke-linecap="round" stroke-linejoin="round"/>
<path d="M208.158 438.347H200.367V440.944H208.158V438.347Z" fill="white" stroke="#263238" stroke-miterlimit="10" stroke-linecap="round" stroke-linejoin="round"/>
<path d="M219.123 438.347H211.332V440.944H219.123V438.347Z" fill="white" stroke="#263238" stroke-miterlimit="10" stroke-linecap="round" stroke-linejoin="round"/>
<path d="M230.088 438.347H222.297V440.944H230.088V438.347Z" fill="white" stroke="#263238" stroke-miterlimit="10" stroke-linecap="round" stroke-linejoin="round"/>
<path d="M241.053 438.347H233.262V440.944H241.053V438.347Z" fill="white" stroke="#263238" stroke-miterlimit="10" stroke-linecap="round" stroke-linejoin="round"/>
<path d="M252.019 438.347H244.228V440.944H252.019V438.347Z" fill="white" stroke="#263238" stroke-miterlimit="10" stroke-linecap="round" stroke-linejoin="round"/>
<path d="M262.984 438.347H255.193V440.944H262.984V438.347Z" fill="white" stroke="#263238" stroke-miterlimit="10" stroke-linecap="round" stroke-linejoin="round"/>
<path d="M273.949 438.347H266.158V440.944H273.949V438.347Z" fill="white" stroke="#263238" stroke-miterlimit="10" stroke-linecap="round" stroke-linejoin="round"/>
<path d="M284.914 438.347H277.123V440.944H284.914V438.347Z" stroke="#263238" stroke-miterlimit="10" stroke-linecap="round" stroke-linejoin="round"/>
<path d="M295.88 438.347H288.089V440.944H295.88V438.347Z" stroke="#263238" stroke-miterlimit="10" stroke-linecap="round" stroke-linejoin="round"/>
<path d="M298.381 440.54H129.093V445.273H298.381V440.54Z" fill="#263238" stroke="#263238" stroke-miterlimit="10" stroke-linecap="round" stroke-linejoin="round"/>
<path d="M298.381 440.54H241.631V445.273H298.381V440.54Z" fill="white" stroke="#263238" stroke-miterlimit="10" stroke-linecap="round" stroke-linejoin="round"/>
<path d="M205.979 387.04H95.479L66.284 261.04H176.783L205.979 387.04Z" fill="white" stroke="#263238" stroke-miterlimit="10" stroke-linecap="round" stroke-linejoin="round"/>
<path d="M199.479 387.04H88.979L59.784 261.04H170.283L199.479 387.04Z" fill="#263238" stroke="#263238" stroke-miterlimit="10" stroke-linecap="round" stroke-linejoin="round"/>
<path d="M148.103 337.54H118.881L97.025 440.168C96.436 442.934 98.545 445.54 101.373 445.54H168.61L165.36 442.29H128.65C127.207 442.29 126.117 440.984 126.374 439.564L148.103 337.54Z" fill="white" stroke="#263238" stroke-miterlimit="10" stroke-linecap="round" stroke-linejoin="round"/>
<path d="M101.373 445.54H123.03C122.948 445.226 122.929 444.89 122.991 444.547L144.719 337.54H118.881L97.025 440.168C96.436 442.934 98.545 445.54 101.373 445.54Z" fill="#616161" stroke="#263238" stroke-miterlimit="10" stroke-linecap="round" stroke-linejoin="round"/>
<path d="M453.381 444.873H53.381V454.206H453.381V444.873Z" fill="#263238" stroke="#263238" stroke-miterlimit="10" stroke-linecap="round" stroke-linejoin="round"/>
<path d="M453.381 444.873H329.518V454.206H453.381V444.873Z" fill="white" stroke="#263238" stroke-miterlimit="10" stroke-linecap="round" stroke-linejoin="round"/>
</svg>
