<svg width="1024" height="1024" viewBox="0 0 1024 1024" fill="none" xmlns="http://www.w3.org/2000/svg">
<circle cx="512" cy="512" r="445" fill="#3330A0"/>
<path d="M410.026 460.36C410.734 453.017 411.422 446.095 412.143 438.826C404.667 438.826 397.208 439.021 389.768 438.728C386.902 438.615 383.737 437.973 381.313 436.544C377.032 434.021 375.42 428.79 377.125 424.299C378.868 419.706 382.344 417.01 387.387 416.966C397.536 416.879 407.686 416.94 418.011 416.94C427.446 381.584 442.981 349.683 468.955 323.202C462.386 322.738 440.631 331.431 422.892 341.253C408.131 349.427 393.91 358.496 381.861 370.319C370.031 381.929 359.072 394.426 347.289 407.006C341.742 404.234 335.393 401.061 329.021 397.877C363.703 339.888 445.634 286.246 537.692 293.539C644.31 301.986 713.437 380.093 734.271 438.627C699.444 438.627 664.707 438.627 629.46 438.627C629.903 443.637 630.557 448.354 630.678 453.084C630.832 459.155 627.65 463.432 622.522 464.792C617.623 466.092 611.984 463.825 609.852 459.214C608.768 456.868 608.414 454.139 608.001 451.54C607.352 447.449 606.932 443.322 606.382 438.943C549.364 438.943 492.638 438.943 435.386 438.943C434.533 445.793 433.59 452.515 432.962 459.266C432.861 460.356 433.947 461.786 434.849 462.696C437.182 465.048 440.39 466.794 442.023 469.517C444.729 474.033 448.176 474.888 453.109 474.841C482.098 474.57 511.09 474.636 540.081 474.669C542.541 474.672 545.157 474.835 547.428 475.667C552.515 477.531 555.221 482.912 554.21 488.203C553.219 493.392 548.785 496.836 542.403 496.887C528.574 496.997 514.744 496.913 500.915 496.915C484.253 496.918 467.589 497.034 450.929 496.854C447.107 496.813 444.753 497.87 442.43 501.119C434.997 511.512 424.118 514.685 412.511 510.493C401.711 506.593 394.402 495.795 395.045 484.04C395.472 476.222 398.872 469.703 405.066 464.757C406.718 463.438 408.359 462.107 410.026 460.36ZM601.389 360.134C611.904 377.838 619.322 396.855 624.907 416.708C649.689 416.708 674.115 416.708 698.576 416.708C688.823 385.659 605.335 322.848 574.349 322.417C583.012 334.454 592.023 346.974 601.389 360.134ZM561.871 341.637C553.243 331.492 544.283 321.702 532.699 313.253C532.699 348.49 532.699 382.525 532.699 416.758C555.606 416.758 578.185 416.758 601.553 416.758C593.272 389.067 580.409 364.279 561.871 341.637ZM475.5 416.848C486.915 416.848 498.331 416.848 509.648 416.848C509.648 382.176 509.648 348.171 509.648 312.572C475.317 340.641 453.771 375.27 441.291 416.848C452.959 416.848 463.729 416.848 475.5 416.848Z" fill="white"/>
<path d="M294.711 318.705C339.894 268.986 395.314 237.767 460.848 222.536C462.716 230.445 464.421 237.662 466.205 245.214C355.711 274.015 282.464 341.756 248.8 451.834C241.119 451.305 233.235 450.763 224.323 450.15C237.587 400.576 260.506 356.856 294.711 318.705Z" fill="white"/>
<path d="M639.95 795.901C620.417 804.495 600.859 811.812 579.545 816.065C577.642 808.426 575.787 800.978 573.901 793.407C675.984 766.601 746.7 704.779 785.285 605.9C792.299 608.417 799.42 610.972 807.508 613.873C776.586 697.712 720.813 758.031 639.95 795.901Z" fill="white"/>
<path d="M346.108 731.942C364.475 746.771 384.097 758.931 405.247 768.545C408.891 770.202 409.883 772.113 408.932 775.745C407.38 781.672 406.022 787.65 404.42 794.278C366.927 778.495 334.268 756.362 305.949 727.927C275.743 697.597 253.202 662.28 237.913 621.353C245.721 618.735 252.856 616.342 260.282 613.852C278.984 660.686 307.034 700.131 346.108 731.942Z" fill="white"/>
<path d="M740.591 311.407C768.199 340.01 789.286 372.369 803.983 409.716C796.349 413.185 789.199 416.435 781.917 419.744C752.748 347.179 701.666 296.725 632.249 263.172C634.47 256.017 636.701 248.829 639.051 241.259C678.184 257.562 711.251 281.468 740.591 311.407Z" fill="white"/>
<path d="M498.099 715.857C501.71 718.208 505.321 720.56 509.681 723.399C509.83 720.893 509.922 719.339 510.438 717.4C517.953 717.358 525.046 717.7 532.139 718.042C532.16 718.769 532.18 719.495 531.856 720.64C531.065 721.614 530.617 722.171 530.17 722.727C530.847 722.792 531.523 722.856 532.199 722.921C536.522 720.051 540.92 717.287 545.135 714.268C547.265 712.742 549.063 710.755 551.667 709.18C552.557 711.001 552.575 712.695 553.101 714.212C553.46 715.247 554.739 716.922 555.247 716.801C560.418 715.567 566.91 720.55 570.945 713.556C571.281 712.975 573.109 713.256 574.244 713.137C574.622 713.697 574.999 714.258 575.8 715.181C577.389 721.561 570.621 718.371 569.179 721.426C573.21 724.049 586.439 726.194 590.555 724.826C591.395 724.547 592.211 723.807 592.749 723.068C595.768 718.925 596.273 718.938 599.172 723.556C600.853 723.163 602.548 722.767 604.532 722.303C603.937 723.938 603.509 725.117 603.08 726.295C588.521 730.819 574.227 736.7 559.352 739.605C520.642 747.165 482.588 743.499 445.654 729.381C444.277 728.854 443.005 728.048 441.298 726.91C439.565 725.458 438.218 724.469 436.172 722.968C440.402 722.176 443.114 721.593 445.851 721.17C451.659 720.273 457.472 719.387 463.302 718.644C465.763 718.33 468.13 718.285 466.361 714.82C467.065 714.221 467.467 713.639 468.216 713.041C470.166 713.804 471.746 715.166 473.379 715.231C476.131 715.342 478.947 714.185 481.678 714.378C484.991 714.613 489.421 714.621 491.27 716.644C494.746 720.448 496.197 719.472 498.099 715.857Z" fill="white"/>
<path d="M529.872 195.011C549.312 202.585 553.162 225.542 540.66 239.054C531.786 248.644 516.333 250.159 505.59 242.72C494.561 235.083 490.711 220.191 496.679 208.254C502.785 196.043 515.977 190.679 529.872 195.011Z" fill="white"/>
<path d="M529.15 841.301C517.728 844.643 508.394 841.51 500.779 833.302C493.864 825.848 492.321 816.981 495.488 807.39C499.337 795.733 510.866 788.675 523.697 789.921C536.02 791.117 545.82 800.947 547.467 813.762C548.958 825.363 541.642 836.527 529.15 841.301Z" fill="white"/>
<path d="M349.046 553.22C330.918 553.22 313.282 553.22 295.052 553.22C293.969 546.495 292.873 539.686 291.657 532.131C294.27 532.131 296.221 532.134 298.172 532.131C325.984 532.085 353.797 532.013 381.61 532.041C383.885 532.044 386.32 532.334 388.401 533.178C393.265 535.152 395.785 539.997 394.948 544.865C394.161 549.436 390.328 552.92 385.002 553.029C373.184 553.273 361.359 553.177 349.046 553.22Z" fill="white"/>
<path d="M513 553.025C504.218 553.164 495.434 553.481 486.654 553.389C479.077 553.309 474.139 548.689 474.104 542.23C474.072 536.26 479.115 532.31 487.605 532.615C489.631 533.403 491.053 533.962 492.474 533.964C532.55 534.011 572.625 534.018 612.701 533.936C614.121 533.933 615.54 532.949 616.96 532.422C622.221 532.304 627.494 531.921 632.74 532.145C637.625 532.353 641.129 535.103 642.561 539.83C643.925 544.33 642.707 548.208 638.387 550.875C637.925 546.205 635.218 544.859 631.141 544.966C629.342 545.013 627.138 545.286 625.799 544.412C620.026 540.647 614.41 542.648 608.635 544.103C606.176 544.723 603.55 545.029 601.018 544.941C595.321 544.742 589.615 543.717 583.949 543.94C577.65 544.188 571.18 541.914 565.015 544.95C564.505 545.201 563.586 545.09 563.069 544.786C557.116 541.292 551.083 544.023 545.082 544.47C542.774 544.642 540.273 545.451 538.189 544.843C529.388 542.273 522.503 548.112 514.713 549.847C513.945 550.018 513.562 551.924 513 553.025Z" fill="white"/>
<path d="M733.692 533.263C718.836 530.6 709.922 519.5 710.999 505.448C711.967 492.818 723.686 482.2 736.639 482.218C750.315 482.236 761.462 492.765 762.7 506.834C764.04 522.062 750.115 534.967 733.692 533.263Z" fill="white"/>
<path d="M631 496.864C620.678 496.885 610.855 497.038 601.036 496.885C592.753 496.755 587.197 489.87 589.269 482.684C590.635 477.948 594.418 474.931 600.165 474.851C613.146 474.671 626.131 474.793 639.114 474.787C650.101 474.781 661.089 474.682 672.075 474.791C677.948 474.849 682.282 477.767 683.903 482.282C686.657 489.957 681.167 496.758 671.953 496.827C658.469 496.928 644.984 496.86 631 496.864Z" fill="white"/>
<path d="M210.945 540.99C195.625 539.96 186.223 529.872 186.885 515.647C187.442 503.669 198.247 493.874 210.629 494.125C223.152 494.378 233.788 504.656 234.083 516.789C234.405 530.029 225.274 539.764 210.945 540.99Z" fill="white"/>
<path d="M854.998 517.94C853.746 531.816 843.853 541.163 831.096 540.957C819.284 540.767 808.788 531.121 807.931 519.668C806.933 506.336 816.677 494.862 829.651 494.091C842.739 493.314 854.291 503.98 854.998 517.94Z" fill="white"/>
<path d="M314 496.823C306.387 496.824 299.274 496.824 291.295 496.824C292.238 489.35 293.12 482.366 294.033 475.128C295.766 475.005 297.223 474.817 298.68 474.812C315.811 474.752 332.943 474.644 350.074 474.755C352.971 474.774 356.137 475.201 358.692 476.442C362.985 478.527 364.599 482.524 364.063 487.298C363.533 492.018 360.71 494.812 356.318 495.963C354.101 496.544 351.731 496.739 349.427 496.756C337.785 496.841 326.142 496.811 314 496.823Z" fill="white"/>
<path d="M630.347 589.881C663.1 589.84 695.854 589.799 728.608 589.759C730.379 589.757 732.15 589.759 734.775 589.759C733.447 593.549 732.422 596.477 730.752 599.702C727.982 600.328 725.863 600.889 723.729 600.954C690.172 601.976 656.548 599.006 623.022 602.863C617.508 603.498 611.786 602.324 606.16 601.987C606.441 599.237 606.723 596.488 607.47 593.25C611.207 590.209 622.402 588.286 624.201 590.706C627.347 594.942 628.549 591.789 630.347 589.881Z" fill="white"/>
<path d="M606.034 602.253C611.786 602.324 617.508 603.498 623.022 602.863C656.548 599.006 690.172 601.976 723.729 600.954C725.863 600.889 727.982 600.328 730.533 599.996C729.198 604.272 727.637 608.65 725.554 612.763C724.95 613.956 722.844 615.048 721.439 615.033C718.834 615.007 716.259 613.973 713.636 613.639C706.111 612.68 698.578 611.23 691.03 611.108C670.783 610.783 650.527 610.999 630.276 611.186C628.758 611.2 627.254 612.688 625.07 613.775C618.51 613.037 611.638 618.633 607.088 611.179C605.328 612.682 603.926 613.88 602.523 615.077C603.119 612.227 603.715 609.377 604.846 606.212C605.742 605.63 606.104 605.364 606.466 605.097C606.02 604.736 605.573 604.376 605.127 604.015C605.388 603.516 605.648 603.018 606.034 602.253Z" fill="white"/>
<path d="M603.456 726.22C603.509 725.117 603.937 723.938 604.532 722.303C602.548 722.767 600.853 723.163 599.172 723.556C596.273 718.938 595.768 718.925 592.749 723.068C592.211 723.807 591.395 724.547 590.555 724.826C586.439 726.194 573.21 724.049 569.179 721.426C570.621 718.371 577.389 721.561 576.089 715.225C578.696 713.846 581.439 712.787 584.546 712.054C584.297 714.87 583.604 717.752 587.363 717.811C589.196 717.84 592.129 716.666 592.679 715.285C593.878 712.279 592.538 709.815 588.668 709.872C597.497 705.577 606.326 701.281 615.653 697.198C619.451 701.899 623.049 697.923 625.419 697.82C628.249 699.492 630.323 701.733 632.319 701.666C635.599 701.556 638.804 699.859 642.086 699.005C644.12 698.476 646.237 698.267 648.891 697.818C647.717 700.37 647.032 701.859 646.348 703.348C646.07 703.757 645.887 704.347 645.501 704.548C631.623 711.77 617.726 718.955 603.456 726.22ZM581.443 719.292C581.085 718.936 580.727 718.58 580.37 718.224C580.1 718.519 579.83 718.815 579.56 719.11C580.053 719.302 580.547 719.495 581.443 719.292Z" fill="white"/>
<path d="M776.982 279.295C766.537 281.084 758.819 277.234 755.398 268.88C752.436 261.648 754.764 252.839 760.889 248.305C766.772 243.95 773.141 243.221 779.608 246.619C786.388 250.183 789.877 256.108 789.394 263.754C788.909 271.409 784.932 276.794 776.982 279.295Z" fill="white"/>
<path d="M772.84 754C783.931 755.846 790.623 763.989 789.518 773.789C788.484 782.964 781.901 789.047 772.87 789.174C763.196 789.31 755.578 782.776 754.213 773.172C753.088 765.255 758.736 757.058 767.018 754.767C768.755 754.286 770.611 754.234 772.84 754Z" fill="white"/>
<path d="M282.529 274.511C275.484 280.772 267.578 281.688 260.3 277.325C254.593 273.903 250.95 265.579 252.368 259.198C254.276 250.608 259.928 245.188 267.925 244.72C275.357 244.284 281.412 247.141 284.988 253.786C288.84 260.944 287.935 267.902 282.529 274.511Z" fill="white"/>
<path d="M254.778 761.953C259.699 755.26 265.951 752.53 273.697 754.603C281.118 756.589 285.669 761.703 286.867 769.285C288.001 776.465 285.426 782.414 279.373 786.537C272.996 790.881 263.57 789.941 257.618 784.622C251.655 779.292 250.524 770.937 254.778 761.953Z" fill="white"/>
<path d="M466.058 714.838C468.13 718.285 465.763 718.33 463.302 718.644C457.472 719.387 451.66 720.273 445.851 721.17C443.114 721.593 440.402 722.176 436.173 722.968C438.218 724.469 439.565 725.458 440.978 726.791C431.605 722.803 422.036 718.728 412.774 714.046C406.75 711.002 401.173 707.072 395.207 702.912C395.428 701.669 395.76 700.596 396.263 700.509C400.205 699.829 404.473 700.065 408.075 698.613C413.28 696.515 417.25 697.945 421.521 700.628C424.621 702.576 428.094 704.269 431.355 700.044C443.165 704.976 454.612 709.907 466.058 714.838Z" fill="white"/>
<path d="M328.997 590.026C339.357 589.963 349.717 589.9 360.556 590.309C362.197 592.236 373.062 595.107 375.051 594.817C380.029 594.09 385.121 592.789 390.014 593.273C393.626 593.63 396.986 596.458 400.478 598.143C402.533 599.136 404.554 600.624 406.715 600.897C416.562 602.14 426.453 603.031 436.329 604.048C437.26 607.166 438.192 610.283 438.654 613.773C437.194 613.693 435.586 613.471 435.317 612.749C433.787 608.648 430.46 608.675 427.158 609.062C423.364 609.505 419.621 610.378 415.545 611.052C414.826 610.97 414.417 610.901 413.938 610.528C412.909 610.427 411.95 610.632 410.663 610.896C409.893 610.926 409.451 610.896 408.954 610.525C406.19 606.53 396.537 601.767 393.938 603.504C390.311 605.927 387.896 604.543 384.937 602.593C383.41 601.587 381.29 601.15 379.411 601.068C373.592 600.814 367.689 601.374 361.959 600.591C358.261 600.087 355.054 597.252 351.116 600.679C350.096 601.566 346.921 600.098 344.784 599.528C343.723 599.245 342.82 598.253 341.766 598.087C336.862 597.313 331.939 596.27 327.005 596.173C321.319 596.06 315.284 595.764 311.078 600.978C310.159 598.875 309.241 596.772 308.691 594.325C312.482 593.619 315.951 593.49 319.313 592.826C322.598 592.177 325.774 590.982 328.997 590.026Z" fill="white"/>
<path d="M430.991 700.044C428.093 704.269 424.621 702.576 421.521 700.628C417.25 697.945 413.28 696.515 408.075 698.613C404.473 700.065 400.205 699.829 396.263 700.509C395.76 700.596 395.428 701.669 395.009 702.639C384.002 694.016 373.003 685.039 362.078 675.392C370.699 668.163 371.579 668.183 379.639 675.138C380.016 675.463 380.32 676.005 380.746 676.121C384.261 677.078 387.778 678.065 391.354 678.71C391.752 678.782 392.525 676.776 393.48 675.781C395.216 676.684 396.615 677.509 397.972 678.397C408.983 685.606 419.986 692.827 430.991 700.044Z" fill="white"/>
<path d="M469.172 601.989C468.585 593.821 472.042 589.847 480.351 589.802C502.317 589.683 524.284 589.761 546.251 589.722C550.075 589.715 553.901 589.377 557.723 589.432C566.096 589.553 570.133 593.763 569.68 602.598C567.478 604.358 565.746 605.687 563.742 606.792C561.706 603.973 561.086 600.791 556.423 600.814C548.035 600.853 539.886 599.006 534.547 594.544C528.494 595.114 523.755 595.55 519.019 596.011C516.226 596.283 513.415 596.469 510.649 596.917C504.782 597.866 498.972 599.244 493.078 599.91C488.213 600.46 483.207 599.289 478.642 602.417C477.366 603.291 474.873 602.407 472.94 602.297C471.682 602.225 470.428 602.094 469.172 601.989Z" fill="white"/>
<path d="M646.67 703.236C647.032 701.859 647.717 700.37 648.891 697.818C646.237 698.267 644.12 698.476 642.086 699.005C638.804 699.859 635.599 701.556 632.319 701.666C630.323 701.733 628.249 699.492 625.419 697.82C623.049 697.923 619.451 701.899 615.986 697.078C626.475 689.795 637.129 682.845 648.555 675.916C650.947 675.71 652.561 675.337 654.186 675.28C660.563 675.056 667.659 677.726 671.275 671.438C673.786 673.513 676.058 675.391 678.33 677.268C671.029 683.734 663.813 690.299 656.386 696.617C653.499 699.073 650.138 700.971 646.67 703.236Z" fill="white"/>
<path d="M311.113 601.32C315.284 595.764 321.319 596.06 327.005 596.173C331.938 596.27 336.862 597.313 341.766 598.087C342.82 598.253 343.723 599.245 344.784 599.528C346.92 600.098 350.096 601.566 351.116 600.679C355.054 597.252 358.261 600.087 361.959 600.591C367.689 601.374 373.592 600.814 379.411 601.068C381.29 601.15 383.41 601.587 384.937 602.593C387.896 604.543 390.311 605.927 393.938 603.504C396.537 601.767 406.19 606.53 408.49 610.605C386.391 610.987 364.7 610.949 342.956 610.624C341.759 610.043 340.63 609.65 339.468 609.472C336.111 608.956 332.066 609.538 329.521 607.842C324.822 604.712 318.356 603.73 313.859 607.077C312.956 605.271 312.052 603.466 311.113 601.32Z" fill="white"/>
<path d="M513.408 553.128C513.562 551.924 513.945 550.018 514.713 549.847C522.503 548.112 529.388 542.273 538.189 544.843C540.273 545.451 542.774 544.642 545.082 544.47C551.083 544.023 557.116 541.292 563.069 544.786C563.586 545.09 564.505 545.201 565.015 544.95C571.18 541.914 577.65 544.188 583.949 543.94C589.615 543.717 595.321 544.742 601.018 544.941C603.55 545.029 606.176 544.723 608.635 544.103C614.41 542.648 620.026 540.647 625.799 544.412C627.138 545.286 629.342 545.013 631.141 544.966C635.218 544.859 637.925 546.205 638.089 551.083C636.277 552.231 634.419 553.037 631.909 553.732C624.209 553.74 617.16 553.86 610.111 553.98C608.659 553.701 607.206 553.422 605.372 552.648C605.093 549.381 603.783 549.103 601.224 549.291C597.894 549.535 594.501 548.826 591.129 548.622C586.787 548.36 582.142 547.159 578.187 548.301C574.836 549.268 572.316 550.048 568.913 548.635C563.572 546.419 560.971 547.948 560 553.019C558.281 553.092 556.563 553.164 554.255 552.807C551.496 551.252 549.186 548.973 547.184 549.218C541.055 549.969 535.045 551.689 528.988 553.032C527.276 553.103 525.564 553.175 523.192 552.885C521.019 552.691 519.504 552.859 517.99 553.028C516.598 553.096 515.207 553.163 513.408 553.128Z" fill="white"/>
<path d="M393.124 675.733C392.525 676.776 391.752 678.782 391.354 678.71C387.778 678.065 384.261 677.078 380.746 676.121C380.32 676.005 380.016 675.463 379.639 675.138C371.579 668.183 370.699 668.163 361.999 675.076C353.539 665.889 345.234 656.349 337.179 646.408C341.251 647.382 345.073 646.13 348.89 645.982C353.694 645.795 358.253 645.951 360.868 651.015C362.982 655.11 365.561 655.757 370.536 653.711C378.269 661.156 385.697 668.445 393.124 675.733ZM360.824 669.456C360.819 669.808 360.811 670.16 360.827 670.512C360.828 670.521 361.228 670.527 361.229 670.517C361.257 670.166 361.26 669.814 360.824 669.456Z" fill="white"/>
<path d="M678.635 677.149C676.058 675.391 673.786 673.513 671.275 671.438C667.659 677.726 660.563 675.056 654.186 675.28C652.561 675.337 650.947 675.71 648.889 675.934C657.414 666.998 666.378 658.065 675.714 649.308C680.007 649.563 684.359 650.704 687.698 649.349C689.93 648.443 691.515 646.921 694.164 647.817C696.822 648.715 699.573 649.341 702.283 650.086C701.74 650.971 701.196 651.855 700.091 652.775C698.855 652.818 698.182 652.824 697.508 652.831C697.718 653.686 697.929 654.541 698.139 655.396C691.739 662.607 685.339 669.818 678.635 677.149Z" fill="white"/>
<path d="M819.556 446.891C820.826 455.939 817.57 462.509 810.998 464.834C803.671 467.426 796.329 464.913 792.38 458.461C788.143 451.54 790.049 442.769 796.754 438.33C803.454 433.894 812.983 435.785 817.445 442.506C818.26 443.734 818.764 445.168 819.556 446.891Z" fill="white"/>
<path d="M497.922 715.58C496.197 719.472 494.746 720.448 491.27 716.644C489.421 714.621 484.991 714.613 481.678 714.378C478.947 714.185 476.131 715.342 473.379 715.231C471.746 715.166 470.166 713.804 467.928 712.885C462.126 706.18 456.959 699.615 452.122 692.9C458.52 687.521 470.445 686.8 474.359 691.633C474.638 690.94 474.87 690.362 475.102 689.784C482.65 698.29 490.197 706.797 497.922 715.58Z" fill="white"/>
<path d="M469.122 602.345C470.428 602.094 471.682 602.225 472.94 602.297C474.873 602.407 477.366 603.291 478.642 602.417C483.207 599.289 488.213 600.46 493.078 599.91C498.972 599.244 504.782 597.866 510.649 596.917C513.415 596.469 516.226 596.283 519.019 596.011C523.755 595.55 528.494 595.114 534.547 594.544C539.886 599.006 548.035 600.853 556.423 600.814C561.086 600.791 561.706 603.973 563.74 607.14C564.001 608.407 563.993 609.103 563.985 609.799C558.965 610.195 553.945 610.59 548.39 610.595C544.357 607.902 541.105 604.314 537.307 603.59C530.963 602.38 524.27 603.011 517.724 602.844C516.421 602.811 515.121 602.635 513.818 602.59C511.893 602.523 509.77 601.966 508.073 602.573C499.912 605.49 492.298 610.296 483.021 609.107C482.101 608.989 481.006 610.238 479.992 610.852C473.843 611.497 471.116 607.558 469.122 602.345Z" fill="white"/>
<path d="M603.822 228.144C609.542 234.605 610.321 241.022 606.35 247.047C602.864 252.334 596.077 254.649 590.063 252.601C583.448 250.349 579.331 244.203 579.885 237.152C580.295 231.918 583.05 228.126 587.703 225.833C593.389 223.031 598.677 224.082 603.822 228.144Z" fill="white"/>
<path d="M450.479 810.916C443.305 811.645 438.116 809.317 434.816 803.159C432.001 797.905 432.54 792.986 436.072 788.33C439.61 783.667 445.563 781.696 451.147 783.241C456.639 784.762 461.288 790.154 461.91 795.726C462.53 801.272 459.411 806.876 454.126 809.595C453.103 810.122 451.973 810.44 450.479 810.916Z" fill="white"/>
<path d="M702.498 649.848C699.573 649.341 696.822 648.715 694.164 647.817C691.515 646.921 689.93 648.443 687.698 649.349C684.359 650.704 680.007 649.563 676.01 649.143C681.736 641.35 687.487 633.859 693.413 626.509C694.034 625.739 695.823 625.303 696.848 625.568C702.902 627.138 708.892 628.961 716.463 631.149C711.473 637.849 707.093 643.729 702.498 649.848Z" fill="white"/>
<path d="M563.804 694.762C568.521 687.563 573.238 680.364 578.653 673.064C581.938 673.713 584.594 674.287 587.093 675.263C589.456 676.187 591.648 677.545 593.928 678.687C595.479 679.465 597.051 680.2 598.614 680.954C593.963 687.867 589.311 694.78 584.006 701.848C581.67 701.188 579.732 699.373 578.35 699.727C572.235 701.297 568.697 696.181 563.804 694.762Z" fill="white"/>
<path d="M370.231 653.554C365.561 655.757 362.982 655.11 360.867 651.015C358.253 645.951 353.694 645.795 348.89 645.982C345.073 646.13 341.251 647.382 337.065 646.076C332.802 640.345 328.904 634.545 325.308 628.307C332.737 621.383 338.934 625.64 345.209 630.239C346.316 628.161 347.155 626.588 348.276 625.195C355.783 634.769 363.007 644.161 370.231 653.554Z" fill="white"/>
<path d="M598.805 680.648C597.051 680.2 595.479 679.465 593.928 678.687C591.648 677.545 589.456 676.187 587.093 675.263C584.594 674.287 581.938 673.713 578.946 672.93C582.136 665.734 585.732 658.571 589.961 651.235C597.481 652.742 603.006 659.097 610.991 656.997C606.993 664.779 602.994 672.56 598.805 680.648Z" fill="white"/>
<path d="M611.218 656.731C603.006 659.097 597.481 652.742 590.215 651.009C592.312 644.459 594.79 637.962 597.935 631.215C603.663 631.356 608.801 631.361 613.742 632.353C615.434 632.692 616.631 635.502 618.054 637.183C615.851 643.61 613.648 650.037 611.218 656.731Z" fill="white"/>
<path d="M436.236 603.674C426.453 603.031 416.562 602.14 406.715 600.897C404.554 600.624 402.533 599.135 400.478 598.143C396.986 596.458 393.626 593.63 390.014 593.273C385.121 592.789 380.029 594.09 375.051 594.817C373.062 595.107 362.197 592.236 361.018 590.397C377.87 589.952 394.74 589.891 412.416 589.992C416.029 593.17 419.593 593.405 423.334 592.842C427.177 592.263 431.007 591.603 434.843 590.979C435.276 595.086 435.71 599.193 436.236 603.674Z" fill="white"/>
<path d="M347.994 625.014C347.155 626.588 346.317 628.162 345.209 630.24C338.934 625.64 332.738 621.383 325.236 627.964C321.229 621.306 317.596 614.553 313.911 607.438C318.356 603.73 324.822 604.712 329.521 607.842C332.066 609.538 336.111 608.956 339.468 609.472C340.63 609.65 341.759 610.043 342.596 610.71C342.194 612.377 341.592 613.927 342.094 614.917C343.855 618.387 345.997 621.664 347.994 625.014Z" fill="white"/>
<path d="M474.963 689.484C474.87 690.362 474.637 690.94 474.359 691.633C470.445 686.8 458.52 687.521 451.896 692.655C447.489 686.215 443.64 679.87 439.955 673.142C441.675 671.844 443.193 670.249 444.798 670.155C447.867 669.976 451.081 670.288 454.059 671.066C457.55 671.978 459.747 671.114 461.099 667.855C465.674 674.965 470.249 682.074 474.963 689.484Z" fill="white"/>
<path d="M532.197 717.629C525.046 717.7 517.953 717.358 510.482 716.997C510.068 710.626 510.031 704.274 510.503 697.459C517.661 697.324 524.31 697.65 531.011 698.273C531.608 699.058 532.155 699.546 532.701 700.035C532.552 705.762 532.403 711.488 532.197 717.629Z" fill="white"/>
<path d="M563.534 694.959C568.697 696.181 572.235 701.297 578.35 699.727C579.732 699.373 581.67 701.188 583.726 702.029C581.024 705.688 577.948 709.323 574.558 713.047C573.109 713.256 571.281 712.975 570.945 713.556C566.91 720.55 560.418 715.567 555.247 716.801C554.739 716.922 553.46 715.247 553.101 714.212C552.575 712.695 552.557 711.001 551.99 709.101C555.526 704.265 559.395 699.71 563.534 694.959Z" fill="white"/>
<path d="M510.115 680.977C510.075 674.289 510.034 667.6 510.473 660.456C517.982 662.127 525.791 660.006 532.486 663.951C532.562 669.974 532.638 675.998 532.288 682.479C525.031 677.636 517.846 676.277 510.115 680.977Z" fill="white"/>
<path d="M618.368 637C616.631 635.502 615.434 632.692 613.742 632.353C608.801 631.361 603.663 631.356 598.164 630.943C599.212 625.835 600.699 620.748 602.355 615.369C603.926 613.88 605.328 612.682 607.088 611.179C611.638 618.633 618.51 613.037 624.864 614.098C623.116 621.696 620.899 629.256 618.368 637Z" fill="white"/>
<path d="M446.924 638.031C448.962 642.72 451 647.409 452.794 652.758C445.726 654.266 438.902 655.116 431.772 655.819C428.832 649.517 426.196 643.361 424.012 637.158C425.904 636.824 427.358 636.244 428.781 636.31C432.441 636.481 436.088 636.93 439.738 637.285C442.135 637.518 444.529 637.781 446.924 638.031Z" fill="white"/>
<path d="M510.049 681.442C517.846 676.277 525.031 677.636 532.2 682.934C532.615 687.289 532.692 691.646 532.459 696.514C531.752 697.343 531.356 697.659 530.959 697.976C524.31 697.65 517.661 697.324 510.552 696.992C510.056 691.961 510.02 686.934 510.049 681.442Z" fill="white"/>
<path d="M432.077 655.966C438.902 655.116 445.726 654.266 452.865 653.113C455.761 657.603 458.344 662.396 461.013 667.522C459.747 671.114 457.55 671.978 454.059 671.066C451.081 670.288 447.867 669.976 444.798 670.155C443.193 670.249 441.675 671.844 439.702 672.878C436.845 668.005 434.405 663.013 432.212 657.819C432.623 657.225 432.786 656.834 432.774 656.425C432.449 656.23 432.275 656.084 432.077 655.966Z" fill="white"/>
<path d="M510.325 645.369C510.273 640.175 510.22 634.981 510.712 629.377C513.256 628.33 515.391 626.899 517.231 627.211C522.353 628.08 527.352 629.672 532.4 630.979C532.486 636.325 532.571 641.67 532.186 647.483C524.586 647.09 517.455 646.229 510.325 645.369Z" fill="white"/>
<path d="M480.455 610.937C481.006 610.238 482.101 608.989 483.021 609.107C492.298 610.296 499.912 605.49 508.073 602.573C509.77 601.966 511.893 602.523 513.818 602.59C515.121 602.635 516.421 602.811 517.724 602.844C524.27 603.011 530.963 602.38 537.307 603.59C541.105 604.314 544.357 607.902 547.932 610.526C543.107 610.943 538.206 611.037 532.493 611.009C524.397 608.816 517.102 605.459 509.877 611.057C500.224 611.045 490.57 611.034 480.455 610.937Z" fill="white"/>
<path d="M446.884 637.659C444.529 637.781 442.135 637.518 439.738 637.285C436.088 636.93 432.441 636.481 428.781 636.31C427.358 636.244 425.904 636.824 423.817 636.916C421.732 631.497 420.294 626.271 419.134 620.866C420.225 620.293 421.088 619.485 421.844 619.575C426.178 620.092 430.488 620.822 435.423 621.574C435.849 625.025 439.301 622.867 441.884 622.989C443.537 627.755 445.191 632.521 446.884 637.659Z" fill="white"/>
<path d="M510.252 645.731C517.455 646.229 524.586 647.09 532.095 647.936C532.547 652.962 532.62 658.002 532.589 663.497C525.79 660.006 517.982 662.127 510.539 659.99C510.143 655.351 510.161 650.722 510.252 645.731Z" fill="white"/>
<path d="M610.058 554.445C617.16 553.86 624.209 553.74 631.553 553.767C631.666 558.693 631.484 563.472 630.825 568.568C629.198 568.377 628.016 567.376 626.904 567.447C621.298 567.809 615.71 568.45 610.116 568.993C610.079 564.298 610.042 559.604 610.058 554.445Z" fill="white"/>
<path d="M630.235 589.478C628.549 591.789 627.347 594.942 624.201 590.706C622.402 588.286 611.207 590.209 607.604 592.858C607.902 587.904 608.53 582.855 609.62 577.457C614.498 577.047 618.919 577.082 623.33 576.89C625.854 576.78 628.363 576.302 630.879 575.989C630.627 580.351 630.376 584.713 630.235 589.478Z" fill="white"/>
<path d="M802.002 587.429C795.175 583.923 794.025 581.448 795.259 573.568C802.676 573.568 810.081 573.568 817.418 573.568C818.997 584.384 813.406 589.406 802.002 587.429Z" fill="white"/>
<path d="M532.517 630.526C527.352 629.672 522.353 628.08 517.231 627.211C515.391 626.899 513.256 628.33 510.824 628.999C510.285 626.609 510.177 624.188 510.527 621.347C513.464 619.96 513.784 616.101 517.864 616.828C522.781 617.704 527.975 617.541 532.222 613.938C532.359 619.317 532.496 624.695 532.517 630.526Z" fill="white"/>
<path d="M616.536 532.348C615.54 532.949 614.121 533.933 612.701 533.936C572.625 534.018 532.55 534.011 492.474 533.964C491.053 533.962 489.631 533.403 487.927 532.73C519.968 532.296 552.292 532.224 584.616 532.184C595.114 532.171 605.613 532.242 616.536 532.348Z" fill="white"/>
<path d="M441.887 622.642C439.301 622.867 435.849 625.025 435.423 621.574C430.488 620.822 426.178 620.092 421.843 619.575C421.088 619.485 420.225 620.293 418.929 620.564C417.583 617.317 416.719 614.191 415.855 611.065C419.621 610.378 423.364 609.505 427.158 609.062C430.46 608.675 433.787 608.648 435.317 612.749C435.586 613.471 437.194 613.693 438.662 614.232C439.451 615.031 439.763 615.745 439.853 616.879C440.014 617.871 440.398 618.443 440.781 619.015C441.151 620.109 441.52 621.202 441.887 622.642Z" fill="white"/>
<path d="M412.208 582.974C412.236 576.46 415.165 572.572 420.838 571.52C426.207 570.525 431.11 573.586 433.092 579.333C433.624 580.876 433.736 582.565 433.533 584.585C426.087 584.313 419.148 583.643 412.208 582.974Z" fill="white"/>
<path d="M560.459 553.118C560.971 547.948 563.572 546.419 568.913 548.635C572.316 550.048 574.836 549.268 578.187 548.301C582.142 547.159 586.787 548.36 591.129 548.622C594.501 548.826 597.894 549.535 601.224 549.291C603.783 549.103 605.093 549.381 604.995 552.549C590.306 553.036 575.612 553.126 560.459 553.118Z" fill="white"/>
<path d="M532.288 613.607C527.975 617.541 522.781 617.704 517.864 616.828C513.784 616.101 513.464 619.96 510.612 620.948C510.183 619.273 510.127 617.577 510.346 615.431C510.84 614.817 511.059 614.654 511.278 614.491C510.907 614.315 510.537 614.14 510.166 613.964C510.085 613.238 510.003 612.512 509.9 611.421C517.102 605.459 524.397 608.816 532.057 611.069C532.406 611.926 532.38 612.6 532.288 613.607Z" fill="white"/>
<path d="M630.962 575.56C628.363 576.302 625.854 576.78 623.33 576.89C618.919 577.082 614.498 577.047 609.761 577.049C609.606 574.59 609.77 572.19 610.025 569.391C615.71 568.45 621.298 567.809 626.904 567.447C628.016 567.376 629.198 568.377 630.694 568.951C631.042 571.055 631.044 573.092 630.962 575.56Z" fill="white"/>
<path d="M412.125 583.358C419.148 583.643 426.087 584.313 433.482 584.987C434.262 586.732 434.585 588.473 434.876 590.596C431.007 591.603 427.177 592.263 423.334 592.842C419.592 593.405 416.029 593.17 412.852 590C412.334 587.812 412.187 585.777 412.125 583.358Z" fill="white"/>
<path d="M529.358 553.141C535.045 551.689 541.055 549.969 547.184 549.218C549.186 548.973 551.496 551.252 553.837 552.699C545.915 553.098 537.821 553.175 529.358 553.141Z" fill="white"/>
<path d="M588.365 709.898C592.538 709.815 593.878 712.279 592.679 715.285C592.129 716.666 589.196 717.84 587.363 717.811C583.604 717.752 584.297 714.87 584.919 711.977C585.973 711.024 587.017 710.474 588.365 709.898Z" fill="white"/>
<path d="M328.535 589.951C325.774 590.982 322.598 592.177 319.313 592.826C315.951 593.49 312.482 593.619 308.683 593.982C307.971 592.768 307.637 591.554 307.174 589.875C314.429 589.875 321.251 589.875 328.535 589.951Z" fill="white"/>
<path d="M564.317 609.755C563.993 609.103 564.001 608.407 564.012 607.363C565.746 605.687 567.478 604.358 569.556 603.008C568.151 605.228 566.4 607.469 564.317 609.755Z" fill="white"/>
<path d="M518.29 553.135C519.504 552.859 521.019 552.691 522.775 552.781C521.541 553.107 520.065 553.175 518.29 553.135Z" fill="white"/>
<path d="M698.423 655.246C697.929 654.541 697.718 653.686 697.508 652.831C698.182 652.824 698.856 652.818 699.819 652.929C699.641 653.729 699.174 654.413 698.423 655.246Z" fill="white"/>
<path d="M531.01 698.273C531.356 697.659 531.752 697.343 532.4 696.97C532.722 697.696 532.794 698.478 532.783 699.648C532.155 699.546 531.608 699.058 531.01 698.273Z" fill="white"/>
<path d="M532.194 722.592C531.523 722.856 530.847 722.792 530.17 722.727C530.617 722.171 531.065 721.614 531.825 721.002C532.156 721.386 532.172 721.825 532.194 722.592Z" fill="white"/>
<path d="M605.027 604.327C605.573 604.376 606.02 604.736 606.466 605.097C606.104 605.364 605.742 605.63 605.084 605.919C604.834 605.507 604.88 605.073 605.027 604.327Z" fill="white"/>
<path d="M440.804 618.728C440.398 618.443 440.014 617.871 439.845 617.138C440.315 617.465 440.571 617.952 440.804 618.728Z" fill="white"/>
<path d="M510.113 614.233C510.537 614.14 510.908 614.315 511.278 614.491C511.059 614.654 510.84 614.817 510.401 615.01C510.141 614.861 510.101 614.682 510.113 614.233Z" fill="white"/>
<path d="M581.242 719.49C580.547 719.495 580.053 719.302 579.56 719.11C579.83 718.815 580.1 718.519 580.37 718.224C580.727 718.58 581.085 718.936 581.242 719.49Z" fill="white"/>
<path d="M413.938 610.528C413.251 610.893 412.493 610.953 411.363 610.925C411.95 610.632 412.909 610.427 413.938 610.528Z" fill="white"/>
<path d="M361.045 669.459C361.26 669.814 361.257 670.166 361.229 670.517C361.228 670.527 360.828 670.521 360.827 670.512C360.811 670.16 360.819 669.808 361.045 669.459Z" fill="white"/>
<path d="M450.52 651.535C450.559 651.514 450.481 651.555 450.52 651.535Z" fill="white"/>
<path d="M432.212 657.819C432.062 657.565 432.16 657.109 432.603 656.548C432.786 656.834 432.623 657.225 432.212 657.819Z" fill="white"/>
<path d="M433.481 617.469C433.52 617.448 433.442 617.489 433.481 617.469Z" fill="white"/>
</svg>
